<svg width="20" height="23" viewBox="0 0 20 23" fill="none" xmlns="http://www.w3.org/2000/svg">
<path d="M13.2499 16.9855H18.6666L17.1446 15.4635C16.7318 15.0507 16.4999 14.4909 16.4999 13.9072V10.4855C16.4999 7.65538 14.6912 5.24769 12.1666 4.35538V3.98551C12.1666 2.7889 11.1965 1.81885 9.99992 1.81885C8.8033 1.81885 7.83325 2.7889 7.83325 3.98551V4.35538C5.30867 5.24769 3.49992 7.65538 3.49992 10.4855V13.9072C3.49992 14.4909 3.26803 15.0507 2.85526 15.4635L1.33325 16.9855H6.74992M13.2499 16.9855V18.0688C13.2499 19.8638 11.7948 21.3188 9.99992 21.3188C8.20499 21.3188 6.74992 19.8638 6.74992 18.0688V16.9855M13.2499 16.9855H6.74992" stroke="#667085" stroke-width="2" stroke-linecap="round" stroke-linejoin="round"/>
</svg>
