<svg width="21" height="19" viewBox="0 0 21 19" fill="none" xmlns="http://www.w3.org/2000/svg">
<path d="M10.5 14.6772C11.75 14.6772 12.8125 14.2397 13.6875 13.3647C14.5625 12.4897 15 11.4272 15 10.1772C15 8.92725 14.5625 7.86475 13.6875 6.98975C12.8125 6.11475 11.75 5.67725 10.5 5.67725C9.25 5.67725 8.1875 6.11475 7.3125 6.98975C6.4375 7.86475 6 8.92725 6 10.1772C6 11.4272 6.4375 12.4897 7.3125 13.3647C8.1875 14.2397 9.25 14.6772 10.5 14.6772ZM10.5 12.6772C9.8 12.6772 9.20833 12.4356 8.725 11.9522C8.24167 11.4689 8 10.8772 8 10.1772C8 9.47725 8.24167 8.88558 8.725 8.40225C9.20833 7.91891 9.8 7.67725 10.5 7.67725C11.2 7.67725 11.7917 7.91891 12.275 8.40225C12.7583 8.88558 13 9.47725 13 10.1772C13 10.8772 12.7583 11.4689 12.275 11.9522C11.7917 12.4356 11.2 12.6772 10.5 12.6772ZM2.5 18.1772C1.95 18.1772 1.47917 17.9814 1.0875 17.5897C0.695833 17.1981 0.5 16.7272 0.5 16.1772V4.17725C0.5 3.62725 0.695833 3.15641 1.0875 2.76475C1.47917 2.37308 1.95 2.17725 2.5 2.17725H5.65L7.5 0.177246H13.5L15.35 2.17725H18.5C19.05 2.17725 19.5208 2.37308 19.9125 2.76475C20.3042 3.15641 20.5 3.62725 20.5 4.17725V16.1772C20.5 16.7272 20.3042 17.1981 19.9125 17.5897C19.5208 17.9814 19.05 18.1772 18.5 18.1772H2.5ZM2.5 16.1772H18.5V4.17725H14.45L12.625 2.17725H8.375L6.55 4.17725H2.5V16.1772Z" fill="#667085"/>
</svg>
