<svg width="24" height="24" viewBox="0 0 24 24" fill="none" xmlns="http://www.w3.org/2000/svg">
<path d="M7.57143 8.42857C8.42391 8.42857 9.24148 8.08992 9.84427 7.48713C10.4471 6.88433 10.7857 6.06677 10.7857 5.21429C10.7857 4.3618 10.4471 3.54424 9.84427 2.94144C9.24148 2.33865 8.42391 2 7.57143 2C6.71895 2 5.90138 2.33865 5.29859 2.94144C4.69579 3.54424 4.35714 4.3618 4.35714 5.21429C4.35714 6.06677 4.69579 6.88433 5.29859 7.48713C5.90138 8.08992 6.71895 8.42857 7.57143 8.42857ZM2 11.4131C2 10.4746 2.76029 9.71429 3.69886 9.71429H8.49886C8.12321 10.662 8.11679 11.7162 8.48087 12.6685C8.84495 13.6207 9.55303 14.4017 10.4651 14.8571H8.414C7.90738 14.8568 7.41211 15.0072 6.99117 15.2891C6.57022 15.571 6.24262 15.9717 6.05 16.4403C4.33143 16.1223 3.30114 15.2643 2.71229 14.306C2 13.1514 2 11.9583 2 11.7526V11.4131ZM14.1054 14.8571H16.1583C17.2254 14.8571 18.14 15.5111 18.5223 16.4403C20.2409 16.1223 21.2711 15.2643 21.86 14.306C22.5714 13.1506 22.5714 11.9574 22.5714 11.7517V11.4131C22.5717 11.19 22.5279 10.969 22.4426 10.7628C22.3573 10.5565 22.2321 10.3692 22.0743 10.2114C21.9165 10.0536 21.7292 9.92844 21.523 9.84314C21.3167 9.75785 21.0957 9.71406 20.8726 9.71429H16.0726C16.4482 10.662 16.4546 11.7162 16.0906 12.6685C15.7265 13.6207 15.0184 14.4017 14.1063 14.8571M20.2143 5.21429C20.2143 6.06677 19.8756 6.88433 19.2728 7.48713C18.67 8.08992 17.8525 8.42857 17 8.42857C16.1475 8.42857 15.33 8.08992 14.7272 7.48713C14.1244 6.88433 13.7857 6.06677 13.7857 5.21429C13.7857 4.3618 14.1244 3.54424 14.7272 2.94144C15.33 2.33865 16.1475 2 17 2C17.8525 2 18.67 2.33865 19.2728 2.94144C19.8756 3.54424 20.2143 4.3618 20.2143 5.21429ZM6.71429 17.4131C6.71429 16.4746 7.47457 15.7143 8.41314 15.7143H16.1583C17.0969 15.7143 17.8571 16.4746 17.8571 17.4131V17.7517C17.8571 17.9574 17.8571 19.1506 17.1457 20.306C16.4 21.5197 14.948 22.5714 12.2857 22.5714C9.62343 22.5714 8.17143 21.5189 7.42571 20.3069C6.71429 19.1506 6.71429 17.9583 6.71429 17.7517V17.4131ZM12.2857 14.4286C13.1382 14.4286 13.9558 14.0899 14.5586 13.4871C15.1614 12.8843 15.5 12.0668 15.5 11.2143C15.5 10.3618 15.1614 9.54424 14.5586 8.94144C13.9558 8.33865 13.1382 8 12.2857 8C11.4332 8 10.6157 8.33865 10.0129 8.94144C9.41008 9.54424 9.07143 10.3618 9.07143 11.2143C9.07143 12.0668 9.41008 12.8843 10.0129 13.4871C10.6157 14.0899 11.4332 14.4286 12.2857 14.4286Z" />
</svg>
