<svg width="25" height="25" viewBox="0 0 25 25" fill="none" xmlns="http://www.w3.org/2000/svg">
<path d="M12.5 20.0747C11.95 20.0747 11.4792 19.8789 11.0875 19.4872C10.6958 19.0955 10.5 18.6247 10.5 18.0747C10.5 17.5247 10.6958 17.0539 11.0875 16.6622C11.4792 16.2705 11.95 16.0747 12.5 16.0747C13.05 16.0747 13.5208 16.2705 13.9125 16.6622C14.3042 17.0539 14.5 17.5247 14.5 18.0747C14.5 18.6247 14.3042 19.0955 13.9125 19.4872C13.5208 19.8789 13.05 20.0747 12.5 20.0747ZM12.5 14.0747C11.95 14.0747 11.4792 13.8789 11.0875 13.4872C10.6958 13.0955 10.5 12.6247 10.5 12.0747C10.5 11.5247 10.6958 11.0539 11.0875 10.6622C11.4792 10.2705 11.95 10.0747 12.5 10.0747C13.05 10.0747 13.5208 10.2705 13.9125 10.6622C14.3042 11.0539 14.5 11.5247 14.5 12.0747C14.5 12.6247 14.3042 13.0955 13.9125 13.4872C13.5208 13.8789 13.05 14.0747 12.5 14.0747ZM12.5 8.07471C11.95 8.07471 11.4792 7.87887 11.0875 7.48721C10.6958 7.09554 10.5 6.62471 10.5 6.07471C10.5 5.52471 10.6958 5.05387 11.0875 4.66221C11.4792 4.27054 11.95 4.07471 12.5 4.07471C13.05 4.07471 13.5208 4.27054 13.9125 4.66221C14.3042 5.05387 14.5 5.52471 14.5 6.07471C14.5 6.62471 14.3042 7.09554 13.9125 7.48721C13.5208 7.87887 13.05 8.07471 12.5 8.07471Z" fill="#1D2939"/>
</svg>
