<svg width="24" height="24" viewBox="0 0 24 24" fill="none" xmlns="http://www.w3.org/2000/svg">
<path fill-rule="evenodd" clip-rule="evenodd" d="M12.0225 15.3462C8.14271 15.3462 4.82947 15.9309 4.82947 18.2728C4.82947 20.6147 8.12169 21.2205 12.0225 21.2205C15.9023 21.2205 19.2146 20.6347 19.2146 18.2938C19.2146 15.9528 15.9233 15.3462 12.0225 15.3462Z" />
<path fill-rule="evenodd" clip-rule="evenodd" d="M12.0225 12.0059C14.5686 12.0059 16.6322 9.94779 16.6322 7.40969C16.6322 4.8716 14.5686 2.81445 12.0225 2.81445C9.47642 2.81445 7.41185 4.8716 7.41185 7.40969C7.40325 9.93922 9.45349 11.9973 11.99 12.0059H12.0225Z" />
<path fill-rule="evenodd" clip-rule="evenodd" d="M6.66185 7.40842C6.66254 4.45427 9.06505 2.06445 12.0225 2.06445C14.9806 2.06445 17.3822 4.45516 17.3822 7.40969C17.3822 10.364 14.9808 12.7559 12.0225 12.7559H11.99L11.9875 12.7559C9.0392 12.7459 6.65253 10.3536 6.66185 7.40842ZM6.66185 7.40842C6.66185 7.40799 6.66185 7.40757 6.66185 7.40714L7.41185 7.40969H6.66185C6.66185 7.40927 6.66185 7.40884 6.66185 7.40842ZM12.0225 3.56445C9.8882 3.56445 8.16185 5.28823 8.16185 7.40969V7.41224H8.16184C8.15466 9.52515 9.86762 11.2481 11.9915 11.2559H12.0225C14.1564 11.2559 15.8822 9.53156 15.8822 7.40969C15.8822 5.28803 14.1566 3.56445 12.0225 3.56445ZM6.73332 15.22C8.16709 14.7408 10.0668 14.5962 12.0225 14.5962C13.99 14.5962 15.8903 14.7464 17.3221 15.2318C18.0419 15.4759 18.6982 15.8224 19.1812 16.3271C19.6816 16.8499 19.9646 17.5114 19.9646 18.2938C19.9646 19.0778 19.679 19.739 19.1757 20.2598C18.6904 20.7621 18.0318 21.1054 17.3113 21.3463C15.8777 21.8256 13.9783 21.9705 12.0225 21.9705C10.0551 21.9705 8.15453 21.8205 6.72246 21.3352C6.00257 21.0912 5.34612 20.7447 4.86303 20.24C4.36252 19.7171 4.07947 19.0554 4.07947 18.2728C4.07947 17.4886 4.36507 16.8273 4.86847 16.3064C5.35392 15.804 6.01272 15.4608 6.73332 15.22ZM5.9471 17.3487C5.70802 17.5961 5.57947 17.8861 5.57947 18.2728C5.57947 18.6612 5.70794 18.9534 5.94662 19.2028C6.20273 19.4703 6.61313 19.7143 7.2039 19.9145C8.39314 20.3176 10.0891 20.4705 12.0225 20.4705C13.9465 20.4705 15.6431 20.3224 16.8356 19.9237C17.4282 19.7255 17.8401 19.4834 18.097 19.2175C18.3361 18.9701 18.4646 18.6803 18.4646 18.2938C18.4646 17.9057 18.3362 17.6135 18.0975 17.3642C17.8415 17.0967 17.4312 16.8527 16.8405 16.6524C15.6515 16.2493 13.9558 16.0962 12.0225 16.0962C10.0984 16.0962 8.4016 16.2439 7.2088 16.6426C6.61612 16.8407 6.20412 17.0828 5.9471 17.3487Z" />
</svg>
