<svg width="11" height="12" viewBox="0 0 11 12" fill="none" xmlns="http://www.w3.org/2000/svg">
<rect width="11.0055" height="12" rx="4" fill="url(#paint0_linear_2300_2519)"/>
<path d="M7.38812 3C7.7291 3 8.00552 3.27642 8.00552 3.6174V8.29326C8.00552 8.68358 7.68911 9 7.29878 9C7.0667 9 6.84941 8.88605 6.71743 8.69515L4.30254 5.20192C4.29645 5.1931 4.28642 5.18785 4.27571 5.18785C4.2577 5.18785 4.24309 5.20245 4.24309 5.22046V8.37845C4.24309 8.72172 3.96482 9 3.62155 9C3.27828 9 3 8.72172 3 8.37845V3.71673C3 3.32089 3.32089 3 3.71673 3C3.95284 3 4.17381 3.11629 4.3075 3.3109L6.70138 6.79567C6.70847 6.80599 6.72019 6.81215 6.73271 6.81215C6.7537 6.81215 6.77072 6.79514 6.77072 6.77415V3.6174C6.77072 3.27642 7.04714 3 7.38812 3Z" fill="white"/>
<defs>
<linearGradient id="paint0_linear_2300_2519" x1="0" y1="6" x2="11.0055" y2="6" gradientUnits="userSpaceOnUse">
<stop stop-color="#FF6330"/>
<stop offset="1" stop-color="#FF3F00"/>
</linearGradient>
</defs>
</svg>
