<svg width="26" height="26" viewBox="0 0 26 26" fill="none" xmlns="http://www.w3.org/2000/svg">
<path d="M16.25 18.4167H21.6666L20.1446 16.8947C19.7319 16.4819 19.5 15.9221 19.5 15.3383V11.9167C19.5 9.08653 17.6912 6.67885 15.1666 5.78653V5.41667C15.1666 4.22005 14.1966 3.25 13 3.25C11.8034 3.25 10.8333 4.22005 10.8333 5.41667V5.78653C8.30873 6.67885 6.49998 9.08653 6.49998 11.9167V15.3383C6.49998 15.9221 6.26809 16.4819 5.85532 16.8947L4.33331 18.4167H9.74998M16.25 18.4167V19.5C16.25 21.2949 14.7949 22.75 13 22.75C11.2051 22.75 9.74998 21.2949 9.74998 19.5V18.4167M16.25 18.4167H9.74998" stroke="#667085" stroke-width="2" stroke-linecap="round" stroke-linejoin="round"/>
</svg>
