
<svg width="25" height="24" viewBox="0 0 25 24" fill="none" xmlns="http://www.w3.org/2000/svg">
<path d="M8.25 16H20.25V6H8.25V16ZM8.25 18C7.7 18 7.22917 17.8042 6.8375 17.4125C6.44583 17.0208 6.25 16.55 6.25 16V4C6.25 3.45 6.44583 2.97917 6.8375 2.5875C7.22917 2.19583 7.7 2 8.25 2H20.25C20.8 2 21.2708 2.19583 21.6625 2.5875C22.0542 2.97917 22.25 3.45 22.25 4V16C22.25 16.55 22.0542 17.0208 21.6625 17.4125C21.2708 17.8042 20.8 18 20.25 18H8.25ZM4.25 22C3.7 22 3.22917 21.8042 2.8375 21.4125C2.44583 21.0208 2.25 20.55 2.25 20V6H4.25V20H18.25V22H4.25Z" fill="#344054"/>
</svg>
