<svg width="25" height="25" viewBox="0 0 25 25" fill="none" xmlns="http://www.w3.org/2000/svg">
<path d="M8.75 16.8701H20.75V6.87012H8.75V16.8701ZM8.75 18.8701C8.2 18.8701 7.72917 18.6743 7.3375 18.2826C6.94583 17.891 6.75 17.4201 6.75 16.8701V4.87012C6.75 4.32012 6.94583 3.84928 7.3375 3.45762C7.72917 3.06595 8.2 2.87012 8.75 2.87012H20.75C21.3 2.87012 21.7708 3.06595 22.1625 3.45762C22.5542 3.84928 22.75 4.32012 22.75 4.87012V16.8701C22.75 17.4201 22.5542 17.891 22.1625 18.2826C21.7708 18.6743 21.3 18.8701 20.75 18.8701H8.75ZM4.75 22.8701C4.2 22.8701 3.72917 22.6743 3.3375 22.2826C2.94583 21.891 2.75 21.4201 2.75 20.8701V6.87012H4.75V20.8701H18.75V22.8701H4.75Z" />
</svg>
