<svg width="154" height="23" viewBox="0 0 154 23" fill="none" xmlns="http://www.w3.org/2000/svg">
<path d="M8.45371 15.3645L11.21 13.702L13.9662 15.3863L13.2443 12.2363L15.6725 10.1363L12.4787 9.85195L11.21 6.87695L9.94121 9.83008L6.74746 10.1145L9.17559 12.2363L8.45371 15.3645ZM5.80684 19.0176L7.22871 12.8707L2.45996 8.73633L8.75996 8.18945L11.21 2.39258L13.66 8.18945L19.96 8.73633L15.1912 12.8707L16.6131 19.0176L11.21 15.7582L5.80684 19.0176Z" fill="#D0D5DD"/>
<path d="M31.5928 6.45508C31.5928 8.73633 34.0225 10.8926 36.7178 11.377L36.0303 12.6113C33.7881 12.127 31.7334 10.6582 30.8271 8.68945C29.9053 10.6504 27.8506 12.1113 25.6084 12.6113L24.9521 11.377C27.6084 10.877 30.0225 8.73633 30.0303 6.45508V5.39258H31.5928V6.45508ZM24.4834 16.627V15.3926H37.2959V16.627H24.4834ZM49.5771 5.83008V7.5332C49.5771 9.58008 49.5771 11.502 48.9678 14.4082L47.499 14.2676C47.7959 12.9785 47.9521 11.8613 48.0303 10.8223L39.624 11.2676L39.4365 10.0488L48.1006 9.7207C48.1318 8.9707 48.1318 8.25195 48.1396 7.5332V7.04883H39.8271V5.83008H49.5771ZM38.3115 16.5957V15.377H51.0771V16.5957H38.3115ZM64.0771 4.48633V12.2363H62.6709V8.92383H60.9521V12.1113H59.5615V4.7207H60.9521V7.73633H62.6709V4.48633H64.0771ZM52.7334 6.45508V5.26758H58.0459V9.00195H54.2021V10.5957C55.9365 10.5801 57.2568 10.5098 58.7959 10.2051L58.9521 11.3926C57.1865 11.7285 55.7334 11.791 53.6865 11.7988H52.7646V7.89258H56.624V6.45508H52.7334ZM54.7334 18.2988V12.8613H56.2021V14.3145H62.624V12.8613H64.0771V18.2988H54.7334ZM56.2021 17.0957H62.624V15.502H56.2021V17.0957Z" fill="#667085"/>
<path d="M79.3417 20.0679C78.8954 20.0679 78.5134 19.909 78.1956 19.5912C77.8778 19.2734 77.7189 18.8914 77.7189 18.4451V9.5198C77.7189 9.07354 77.8778 8.69151 78.1956 8.37371C78.5134 8.05592 78.8954 7.89702 79.3417 7.89702H81.7758V9.5198H79.3417V18.4451H89.0783V9.5198H86.6442V7.89702H89.0783C89.5246 7.89702 89.9066 8.05592 90.2244 8.37371C90.5422 8.69151 90.7011 9.07354 90.7011 9.5198V18.4451C90.7011 18.8914 90.5422 19.2734 90.2244 19.5912C89.9066 19.909 89.5246 20.0679 89.0783 20.0679H79.3417ZM83.3986 14.3881V5.32086L82.1004 6.61908L80.9644 5.46285L84.21 2.21729L87.4556 5.46285L86.3196 6.61908L85.0214 5.32086V14.3881H83.3986Z" fill="#D0D5DD"/>
<path d="M104.882 13.2676C107.913 13.2676 109.827 14.2285 109.835 15.8613C109.827 17.4863 107.913 18.4473 104.882 18.4395C101.882 18.4473 99.96 17.4863 99.96 15.8613C99.96 14.2285 101.882 13.2676 104.882 13.2676ZM98.585 12.1113V10.9082H103.694V8.2832H105.147V10.9082H111.319V12.1113H98.585ZM100.069 6.3457V5.1582H109.726V6.33008C109.733 7.44727 109.733 8.60352 109.335 10.0488L107.882 9.89258C108.257 8.46289 108.257 7.43164 108.257 6.3457H100.069ZM101.444 15.8613C101.429 16.7676 102.765 17.291 104.882 17.2988C107.022 17.291 108.351 16.7676 108.366 15.8613C108.351 14.9395 107.022 14.4004 104.882 14.3926C102.765 14.4004 101.429 14.9395 101.444 15.8613ZM125.194 12.377V13.5957H121.944V18.4707H120.444V13.5957H117.101V18.4707H115.569V13.5957H112.382V12.377H125.194ZM113.772 8.0957C113.78 6.20508 115.796 5.00195 118.757 5.00195C121.718 5.00195 123.749 6.20508 123.741 8.0957C123.749 9.96289 121.718 11.1426 118.757 11.127C115.796 11.1426 113.78 9.96289 113.772 8.0957ZM115.304 8.0957C115.296 9.24414 116.679 9.95508 118.757 9.95508C120.843 9.95508 122.218 9.24414 122.226 8.0957C122.218 6.91602 120.843 6.19727 118.757 6.18945C116.679 6.19727 115.296 6.91602 115.304 8.0957ZM137.132 4.4707V10.1426H139.382V11.377H137.132V18.4707H135.663V4.4707H137.132ZM126.147 7.87695V6.6582H129.601V4.6582H131.085V6.6582H134.444V7.87695H126.147ZM126.866 12.1582C126.866 10.252 128.335 8.9082 130.351 8.9082C132.358 8.9082 133.827 10.252 133.835 12.1582C133.827 14.0801 132.358 15.416 130.351 15.4238C128.335 15.416 126.866 14.0801 126.866 12.1582ZM128.288 12.1582C128.28 13.377 129.155 14.1895 130.351 14.1738C131.538 14.1895 132.405 13.377 132.413 12.1582C132.405 10.9629 131.538 10.1348 130.351 10.127C129.155 10.1348 128.28 10.9629 128.288 12.1582ZM151.694 4.4707V18.4707H150.194V4.4707H151.694ZM140.194 14.7207C143.913 12.9473 145.733 10.4238 146.022 7.1582H140.866V5.9707H147.522C147.522 10.0723 145.78 13.6191 140.976 15.9238L140.194 14.7207Z" fill="#667085"/>
</svg>
