<svg width="34" height="35" viewBox="0 0 34 35" fill="none" xmlns="http://www.w3.org/2000/svg">
<path d="M7.5501 30.5747C6.8076 30.5747 6.17197 30.3103 5.64322 29.7816C5.11447 29.2528 4.8501 28.6172 4.8501 27.8747V8.97471C4.8501 8.23221 5.11447 7.59658 5.64322 7.06783C6.17197 6.53908 6.8076 6.27471 7.5501 6.27471H8.9001V3.57471H11.6001V6.27471H22.4001V3.57471H25.1001V6.27471H26.4501C27.1926 6.27471 27.8282 6.53908 28.357 7.06783C28.8857 7.59658 29.1501 8.23221 29.1501 8.97471V27.8747C29.1501 28.6172 28.8857 29.2528 28.357 29.7816C27.8282 30.3103 27.1926 30.5747 26.4501 30.5747H7.5501ZM7.5501 27.8747H26.4501V14.3747H7.5501V27.8747ZM7.5501 11.6747H26.4501V8.97471H7.5501V11.6747ZM17.0001 19.7747C16.6176 19.7747 16.297 19.6453 16.0382 19.3866C15.7795 19.1278 15.6501 18.8072 15.6501 18.4247C15.6501 18.0422 15.7795 17.7216 16.0382 17.4628C16.297 17.2041 16.6176 17.0747 17.0001 17.0747C17.3826 17.0747 17.7032 17.2041 17.962 17.4628C18.2207 17.7216 18.3501 18.0422 18.3501 18.4247C18.3501 18.8072 18.2207 19.1278 17.962 19.3866C17.7032 19.6453 17.3826 19.7747 17.0001 19.7747ZM11.6001 19.7747C11.2176 19.7747 10.897 19.6453 10.6382 19.3866C10.3795 19.1278 10.2501 18.8072 10.2501 18.4247C10.2501 18.0422 10.3795 17.7216 10.6382 17.4628C10.897 17.2041 11.2176 17.0747 11.6001 17.0747C11.9826 17.0747 12.3032 17.2041 12.562 17.4628C12.8207 17.7216 12.9501 18.0422 12.9501 18.4247C12.9501 18.8072 12.8207 19.1278 12.562 19.3866C12.3032 19.6453 11.9826 19.7747 11.6001 19.7747ZM22.4001 19.7747C22.0176 19.7747 21.697 19.6453 21.4382 19.3866C21.1795 19.1278 21.0501 18.8072 21.0501 18.4247C21.0501 18.0422 21.1795 17.7216 21.4382 17.4628C21.697 17.2041 22.0176 17.0747 22.4001 17.0747C22.7826 17.0747 23.1032 17.2041 23.362 17.4628C23.6207 17.7216 23.7501 18.0422 23.7501 18.4247C23.7501 18.8072 23.6207 19.1278 23.362 19.3866C23.1032 19.6453 22.7826 19.7747 22.4001 19.7747ZM17.0001 25.1747C16.6176 25.1747 16.297 25.0453 16.0382 24.7866C15.7795 24.5278 15.6501 24.2072 15.6501 23.8247C15.6501 23.4422 15.7795 23.1216 16.0382 22.8628C16.297 22.6041 16.6176 22.4747 17.0001 22.4747C17.3826 22.4747 17.7032 22.6041 17.962 22.8628C18.2207 23.1216 18.3501 23.4422 18.3501 23.8247C18.3501 24.2072 18.2207 24.5278 17.962 24.7866C17.7032 25.0453 17.3826 25.1747 17.0001 25.1747ZM11.6001 25.1747C11.2176 25.1747 10.897 25.0453 10.6382 24.7866C10.3795 24.5278 10.2501 24.2072 10.2501 23.8247C10.2501 23.4422 10.3795 23.1216 10.6382 22.8628C10.897 22.6041 11.2176 22.4747 11.6001 22.4747C11.9826 22.4747 12.3032 22.6041 12.562 22.8628C12.8207 23.1216 12.9501 23.4422 12.9501 23.8247C12.9501 24.2072 12.8207 24.5278 12.562 24.7866C12.3032 25.0453 11.9826 25.1747 11.6001 25.1747ZM22.4001 25.1747C22.0176 25.1747 21.697 25.0453 21.4382 24.7866C21.1795 24.5278 21.0501 24.2072 21.0501 23.8247C21.0501 23.4422 21.1795 23.1216 21.4382 22.8628C21.697 22.6041 22.0176 22.4747 22.4001 22.4747C22.7826 22.4747 23.1032 22.6041 23.362 22.8628C23.6207 23.1216 23.7501 23.4422 23.7501 23.8247C23.7501 24.2072 23.6207 24.5278 23.362 24.7866C23.1032 25.0453 22.7826 25.1747 22.4001 25.1747Z" fill="#667085"/>
</svg>
