<svg width="34" height="35" viewBox="0 0 34 35" fill="none" xmlns="http://www.w3.org/2000/svg">
<path d="M3 24.0747V22.2372C3 21.4011 3.42778 20.7205 4.28333 20.1955C5.13889 19.6705 6.26667 19.408 7.66667 19.408C7.91944 19.408 8.1625 19.4129 8.39583 19.4226C8.62917 19.4323 8.85278 19.4567 9.06667 19.4955C8.79444 19.9039 8.59028 20.3317 8.45417 20.7789C8.31806 21.2261 8.25 21.6928 8.25 22.1789V24.0747H3ZM10 24.0747V22.1789C10 21.5567 10.1701 20.9879 10.5104 20.4726C10.8507 19.9573 11.3319 19.5053 11.9542 19.1164C12.5764 18.7275 13.3201 18.4358 14.1854 18.2414C15.0507 18.0469 15.9889 17.9497 17 17.9497C18.0306 17.9497 18.9785 18.0469 19.8438 18.2414C20.709 18.4358 21.4528 18.7275 22.075 19.1164C22.6972 19.5053 23.1736 19.9573 23.5042 20.4726C23.8347 20.9879 24 21.5567 24 22.1789V24.0747H10ZM25.75 24.0747V22.1789C25.75 21.6733 25.6868 21.1969 25.5604 20.7497C25.434 20.3025 25.2444 19.8844 24.9917 19.4955C25.2056 19.4567 25.4243 19.4323 25.6479 19.4226C25.8715 19.4129 26.1 19.408 26.3333 19.408C27.7333 19.408 28.8611 19.6657 29.7167 20.181C30.5722 20.6962 31 21.3817 31 22.2372V24.0747H25.75ZM12.4792 21.7414H21.55C21.3556 21.3525 20.816 21.0122 19.9312 20.7205C19.0465 20.4289 18.0694 20.283 17 20.283C15.9306 20.283 14.9535 20.4289 14.0688 20.7205C13.184 21.0122 12.6542 21.3525 12.4792 21.7414ZM7.66667 18.2414C7.025 18.2414 6.47569 18.0129 6.01875 17.556C5.56181 17.099 5.33333 16.5497 5.33333 15.908C5.33333 15.2469 5.56181 14.6928 6.01875 14.2455C6.47569 13.7983 7.025 13.5747 7.66667 13.5747C8.32778 13.5747 8.88194 13.7983 9.32917 14.2455C9.77639 14.6928 10 15.2469 10 15.908C10 16.5497 9.77639 17.099 9.32917 17.556C8.88194 18.0129 8.32778 18.2414 7.66667 18.2414ZM26.3333 18.2414C25.6917 18.2414 25.1424 18.0129 24.6854 17.556C24.2285 17.099 24 16.5497 24 15.908C24 15.2469 24.2285 14.6928 24.6854 14.2455C25.1424 13.7983 25.6917 13.5747 26.3333 13.5747C26.9944 13.5747 27.5486 13.7983 27.9958 14.2455C28.4431 14.6928 28.6667 15.2469 28.6667 15.908C28.6667 16.5497 28.4431 17.099 27.9958 17.556C27.5486 18.0129 26.9944 18.2414 26.3333 18.2414ZM17 17.0747C16.0278 17.0747 15.2014 16.7344 14.5208 16.0539C13.8403 15.3733 13.5 14.5469 13.5 13.5747C13.5 12.583 13.8403 11.7518 14.5208 11.081C15.2014 10.4101 16.0278 10.0747 17 10.0747C17.9917 10.0747 18.8229 10.4101 19.4937 11.081C20.1646 11.7518 20.5 12.583 20.5 13.5747C20.5 14.5469 20.1646 15.3733 19.4937 16.0539C18.8229 16.7344 17.9917 17.0747 17 17.0747ZM17 14.7414C17.3306 14.7414 17.6076 14.6296 17.8313 14.406C18.0549 14.1823 18.1667 13.9053 18.1667 13.5747C18.1667 13.2442 18.0549 12.9671 17.8313 12.7435C17.6076 12.5198 17.3306 12.408 17 12.408C16.6694 12.408 16.3924 12.5198 16.1687 12.7435C15.9451 12.9671 15.8333 13.2442 15.8333 13.5747C15.8333 13.9053 15.9451 14.1823 16.1687 14.406C16.3924 14.6296 16.6694 14.7414 17 14.7414Z" fill="#667085"/>
</svg>
