<svg width="34" height="35" viewBox="0 0 34 35" fill="none" xmlns="http://www.w3.org/2000/svg">
<path d="M5.48531 30.6615V28.0096H26.6999V30.6615H5.48531ZM5.48531 4.14327V1.49146H26.6999V4.14327H5.48531ZM16.0926 17.4024C17.1975 17.4024 18.1367 17.0156 18.9101 16.2422C19.6836 15.4687 20.0703 14.5296 20.0703 13.4246C20.0703 12.3197 19.6836 11.3805 18.9101 10.6071C18.1367 9.83363 17.1975 9.44691 16.0926 9.44691C14.9877 9.44691 14.0485 9.83363 13.275 10.6071C12.5016 11.3805 12.1149 12.3197 12.1149 13.4246C12.1149 14.5296 12.5016 15.4687 13.275 16.2422C14.0485 17.0156 14.9877 17.4024 16.0926 17.4024ZM5.48531 26.6837C4.75606 26.6837 4.13178 26.4241 3.61247 25.9048C3.09315 25.3854 2.8335 24.7612 2.8335 24.0319V8.121C2.8335 7.39175 3.09315 6.76747 3.61247 6.24815C4.13178 5.72884 4.75606 5.46918 5.48531 5.46918H26.6999C27.4291 5.46918 28.0534 5.72884 28.5727 6.24815C29.092 6.76747 29.3517 7.39175 29.3517 8.121V24.0319C29.3517 24.7612 29.092 25.3854 28.5727 25.9048C28.0534 26.4241 27.4291 26.6837 26.6999 26.6837H5.48531ZM7.80566 24.0319C8.80009 22.7944 10.0045 21.8221 11.4188 21.1149C12.8331 20.4078 14.391 20.0542 16.0926 20.0542C17.7942 20.0542 19.3521 20.4078 20.7664 21.1149C22.1807 21.8221 23.3851 22.7944 24.3795 24.0319H26.6999V8.121H5.48531V24.0319H7.80566ZM11.7171 24.0319H20.4681C19.8272 23.5899 19.1367 23.2585 18.3964 23.0375C17.6561 22.8165 16.8881 22.706 16.0926 22.706C15.297 22.706 14.5291 22.8165 13.7888 23.0375C13.0485 23.2585 12.3579 23.5899 11.7171 24.0319ZM16.0926 14.7505C15.7169 14.7505 15.402 14.6235 15.1479 14.3693C14.8937 14.1152 14.7667 13.8003 14.7667 13.4246C14.7667 13.049 14.8937 12.7341 15.1479 12.4799C15.402 12.2258 15.7169 12.0987 16.0926 12.0987C16.4683 12.0987 16.7832 12.2258 17.0373 12.4799C17.2914 12.7341 17.4185 13.049 17.4185 13.4246C17.4185 13.8003 17.2914 14.1152 17.0373 14.3693C16.7832 14.6235 16.4683 14.7505 16.0926 14.7505Z" fill="#667085"/>
</svg>
