<svg width="34" height="35" viewBox="0 0 34 35" fill="none" xmlns="http://www.w3.org/2000/svg">
<path d="M16.9998 17.0746C17.779 17.0746 18.446 16.7972 19.0009 16.2423C19.5557 15.6875 19.8332 15.0205 19.8332 14.2413C19.8332 13.4621 19.5557 12.7951 19.0009 12.2403C18.446 11.6854 17.779 11.408 16.9998 11.408C16.2207 11.408 15.5537 11.6854 14.9988 12.2403C14.4439 12.7951 14.1665 13.4621 14.1665 14.2413C14.1665 15.0205 14.4439 15.6875 14.9988 16.2423C15.5537 16.7972 16.2207 17.0746 16.9998 17.0746ZM16.9998 27.4871C19.8804 24.8427 22.0172 22.4403 23.4102 20.2798C24.8033 18.1194 25.4998 16.201 25.4998 14.5246C25.4998 11.951 24.6793 9.84372 23.0384 8.20275C21.3974 6.56178 19.3846 5.74129 16.9998 5.74129C14.6151 5.74129 12.6023 6.56178 10.9613 8.20275C9.32032 9.84372 8.49984 11.951 8.49984 14.5246C8.49984 16.201 9.19636 18.1194 10.5894 20.2798C11.9825 22.4403 14.1193 24.8427 16.9998 27.4871ZM16.9998 31.2413C13.1984 28.0066 10.3592 25.0021 8.48213 22.2278C6.60505 19.4534 5.6665 16.8857 5.6665 14.5246C5.6665 10.983 6.80574 8.16143 9.08421 6.06004C11.3627 3.95865 14.0012 2.90796 16.9998 2.90796C19.9984 2.90796 22.637 3.95865 24.9155 6.06004C27.1939 8.16143 28.3332 10.983 28.3332 14.5246C28.3332 16.8857 27.3946 19.4534 25.5175 22.2278C23.6405 25.0021 20.8012 28.0066 16.9998 31.2413Z" fill="#667085"/>
</svg>
