<svg width="34" height="35" viewBox="0 0 34 35" fill="none" xmlns="http://www.w3.org/2000/svg">
<path d="M15.425 19.0997L22.85 11.6747L20.7125 9.53721L15.425 14.8247L13.325 12.7247L11.1875 14.8622L15.425 19.0997ZM17 28.0997C20.05 25.2997 22.3125 22.756 23.7875 20.4685C25.2625 18.181 26 16.1497 26 14.3747C26 11.6497 25.1313 9.41846 23.3938 7.68096C21.6563 5.94346 19.525 5.07471 17 5.07471C14.475 5.07471 12.3438 5.94346 10.6063 7.68096C8.86875 9.41846 8 11.6497 8 14.3747C8 16.1497 8.7375 18.181 10.2125 20.4685C11.6875 22.756 13.95 25.2997 17 28.0997ZM17 32.0747C12.975 28.6497 9.96875 25.4685 7.98125 22.531C5.99375 19.5935 5 16.8747 5 14.3747C5 10.6247 6.20625 7.63721 8.61875 5.41221C11.0313 3.18721 13.825 2.07471 17 2.07471C20.175 2.07471 22.9688 3.18721 25.3813 5.41221C27.7938 7.63721 29 10.6247 29 14.3747C29 16.8747 28.0063 19.5935 26.0188 22.531C24.0313 25.4685 21.025 28.6497 17 32.0747Z" fill="#667085"/>
</svg>
