<svg width="34" height="35" viewBox="0 0 34 35" fill="none" xmlns="http://www.w3.org/2000/svg">
<path d="M22.9169 20.8516L27.7009 16.76L31.4778 17.0747L25.9384 21.8902L27.575 29.0347L24.3647 27.0834L22.9169 20.8516ZM19.9584 11.6613L18.6365 8.57685L20.0843 5.11475L22.9799 11.9445L19.9584 11.6613ZM11.1458 23.7786L15.1114 21.3866L19.0771 23.8101L18.0385 19.2779L21.5321 16.2564L16.9369 15.8473L15.1114 11.5669L13.286 15.8158L8.69081 16.225L12.1844 19.2779L11.1458 23.7786ZM7.33745 29.0347L9.38324 20.1906L2.52197 14.2421L11.5864 13.4553L15.1114 5.11475L18.6365 13.4553L27.7009 14.2421L20.8397 20.1906L22.8854 29.0347L15.1114 24.3452L7.33745 29.0347Z" fill="#667085"/>
</svg>
