<svg width="24" height="24" viewBox="0 0 24 24" fill="none" xmlns="http://www.w3.org/2000/svg">
<path d="M20.514 20.0595L16.107 15.0075C17.289 13.5795 18 11.748 18 9.75C18 5.1945 14.3055 1.5 9.75 1.5C5.193 1.5 1.5 5.1945 1.5 9.75C1.5 14.3055 5.193 18 9.75 18C11.445 18 13.02 17.487 14.3295 16.611L18.7095 21.633C19.143 22.1325 19.902 22.1805 20.397 21.7485C20.898 21.3135 20.9475 20.5575 20.514 20.0595ZM3.75 9.75C3.75 6.441 6.441 3.75 9.75 3.75C13.059 3.75 15.75 6.441 15.75 9.75C15.75 13.059 13.059 15.75 9.75 15.75C6.441 15.75 3.75 13.059 3.75 9.75Z" fill="black"/>
</svg>
