<svg width="256" height="48" viewBox="0 0 256 48" fill="none" xmlns="http://www.w3.org/2000/svg">
<rect width="256" height="48" rx="8" fill="black"/>
<rect x="38" y="6" width="180" height="36" rx="10" fill="black"/>
<rect width="24" height="24" transform="translate(53 12)" fill="black"/>
<path d="M74.2807 30.424C73.9329 31.2275 73.5211 31.9672 73.0441 32.6472C72.3939 33.5743 71.8615 34.216 71.4512 34.5724C70.8152 35.1573 70.1337 35.4568 69.404 35.4739C68.8801 35.4739 68.2483 35.3248 67.5129 35.0224C66.7751 34.7214 66.097 34.5724 65.4771 34.5724C64.8268 34.5724 64.1295 34.7214 63.3836 35.0224C62.6365 35.3248 62.0347 35.4824 61.5746 35.498C60.8748 35.5278 60.1773 35.2198 59.4811 34.5724C59.0367 34.1848 58.4809 33.5204 57.815 32.5791C57.1006 31.5739 56.5133 30.4084 56.0532 29.0795C55.5604 27.6442 55.3134 26.2543 55.3134 24.9087C55.3134 23.3673 55.6464 22.0379 56.3135 20.9239C56.8378 20.029 57.5353 19.3231 58.4083 18.8049C59.2813 18.2867 60.2246 18.0227 61.2404 18.0058C61.7962 18.0058 62.5251 18.1777 63.4308 18.5156C64.334 18.8546 64.914 19.0266 65.1683 19.0266C65.3584 19.0266 66.0026 18.8255 67.0948 18.4247C68.1277 18.0531 68.9994 17.8992 69.7135 17.9598C71.6485 18.116 73.1023 18.8788 74.0691 20.253C72.3385 21.3016 71.4824 22.7703 71.4995 24.6544C71.5151 26.122 72.0475 27.3432 73.0938 28.3129C73.568 28.7629 74.0975 29.1107 74.6867 29.3578C74.5589 29.7283 74.4241 30.0832 74.2807 30.424V30.424ZM69.8427 12.9601C69.8427 14.1104 69.4224 15.1844 68.5848 16.1785C67.574 17.3602 66.3513 18.0431 65.0254 17.9354C65.0086 17.7974 64.9988 17.6521 64.9988 17.4995C64.9988 16.3953 65.4795 15.2135 66.3331 14.2472C66.7593 13.758 67.3014 13.3512 67.9587 13.0267C68.6146 12.7071 69.235 12.5303 69.8185 12.5C69.8356 12.6538 69.8427 12.8076 69.8427 12.9601V12.9601Z" fill="white"/>
<path d="M89.192 28.828L93.16 17.868H94.824L98.76 28.828H97.032L95.976 25.852H91.784L90.744 28.828H89.192ZM93.832 19.948L92.232 24.54H95.496L93.88 19.948H93.832ZM99.9935 31.228V20.668H101.514V21.324H101.578C102.074 20.86 102.922 20.508 103.914 20.508C105.69 20.508 107.242 21.484 107.242 24.492V24.716C107.242 27.74 105.802 28.876 103.562 28.876C102.65 28.876 101.994 28.636 101.562 28.396V31.228H99.9935ZM103.37 27.644C104.778 27.644 105.594 27.004 105.594 24.924V24.588C105.594 22.46 104.826 21.836 103.45 21.836C102.586 21.836 101.898 22.108 101.562 22.364V27.132C101.898 27.388 102.586 27.644 103.37 27.644ZM108.884 31.228V20.668H110.404V21.324H110.468C110.964 20.86 111.812 20.508 112.804 20.508C114.58 20.508 116.132 21.484 116.132 24.492V24.716C116.132 27.74 114.692 28.876 112.452 28.876C111.54 28.876 110.884 28.636 110.452 28.396V31.228H108.884ZM112.26 27.644C113.668 27.644 114.484 27.004 114.484 24.924V24.588C114.484 22.46 113.716 21.836 112.34 21.836C111.476 21.836 110.788 22.108 110.452 22.364V27.132C110.788 27.388 111.476 27.644 112.26 27.644ZM117.823 28.828V17.148H119.391V28.828H117.823ZM125.044 28.972C122.404 28.972 121.092 27.404 121.092 24.844V24.636C121.092 21.836 122.772 20.508 124.74 20.508C127.044 20.508 128.116 21.836 128.116 24.412V25.18H122.708C122.82 27.052 123.732 27.676 125.332 27.676C126.404 27.676 127.108 27.42 127.86 27.084V28.188C127.348 28.556 126.404 28.972 125.044 28.972ZM124.676 21.756C123.812 21.756 122.836 22.204 122.708 24.028H126.468C126.468 22.38 125.86 21.756 124.676 21.756ZM140.768 25.26H136.368V27.644H142.016V28.956H129.136V27.644H134.736V25.26H130.784V20.652H138.72V18.812H130.736V17.5H140.352V21.98H132.432V23.932H140.768V25.26ZM156.431 30.092H154.879V25.18H152.927V23.884H154.879V21.596H153.279V20.316H154.879V16.796H156.431V30.092ZM159.199 30.764H157.631V16.508H159.199V30.764ZM153.151 18.22C153.119 22.492 151.391 25.628 147.983 27.884L146.895 26.748C149.727 25.068 151.343 22.428 151.535 19.564H147.743V18.22H153.151ZM173.907 24.732H161.027V23.42H166.643V21.372H168.275V23.42H173.907V24.732ZM173.363 20.828L172.643 22.124C170.595 21.788 168.179 20.508 167.475 18.956C166.803 20.508 164.531 21.756 162.323 22.108L161.619 20.828C163.987 20.572 166.643 19.164 166.643 17.068V16.62H168.339V17.068C168.339 19.164 171.347 20.7 173.363 20.828ZM162.531 26.028H172.243V30.812H170.611V27.34H162.531V26.028ZM182.327 24.892C182.327 26.604 180.967 27.932 178.935 27.932C176.887 27.932 175.511 26.652 175.511 24.892C175.511 23.196 176.887 21.852 178.935 21.852C180.967 21.852 182.327 23.148 182.327 24.892ZM180.711 24.892C180.711 23.884 179.959 23.196 178.935 23.196C177.895 23.196 177.159 23.884 177.159 24.892C177.159 25.884 177.895 26.588 178.935 26.588C180.039 26.588 180.711 25.884 180.711 24.892ZM183.047 21.164H174.759V19.836H183.047V21.164ZM176.775 18.684V17.34H181.095V18.684H176.775ZM185.943 16.508V22.364H188.151V23.74H185.943V30.764H184.295V16.508H185.943ZM200.458 30.764H198.826V16.508H200.458V30.764ZM196.09 18.012C195.994 22.428 193.786 25.836 189.674 28.092L188.65 26.844C191.93 25.34 194.058 22.348 194.33 19.356H189.482V18.012H196.09Z" fill="white"/>
</svg>
