<svg width="256" height="48" viewBox="0 0 256 48" fill="none" xmlns="http://www.w3.org/2000/svg">
<rect width="256" height="48" rx="8" fill="white"/>
<rect x="33" y="6" width="189" height="36" rx="10" fill="white"/>
<rect width="24" height="24" transform="translate(48 12)" fill="white"/>
<path fill-rule="evenodd" clip-rule="evenodd" d="M71.04 24.2614C71.04 23.4459 70.9668 22.6618 70.8309 21.9091H60V26.3575H66.1891C65.9225 27.795 65.1123 29.013 63.8943 29.8284V32.7139H67.6109C69.7855 30.7118 71.04 27.7636 71.04 24.2614Z" fill="#4285F4"/>
<path fill-rule="evenodd" clip-rule="evenodd" d="M60 35.4998C63.105 35.4998 65.7081 34.4701 67.6109 32.7137L63.8943 29.8282C62.8645 30.5182 61.5472 30.926 60 30.926C57.0047 30.926 54.4695 28.903 53.5652 26.1848H49.7231V29.1644C51.6154 32.9228 55.5045 35.4998 60 35.4998Z" fill="#34A853"/>
<path fill-rule="evenodd" clip-rule="evenodd" d="M53.5652 26.1851C53.3352 25.4951 53.2045 24.758 53.2045 24.0001C53.2045 23.2421 53.3352 22.5051 53.5652 21.8151V18.8355H49.7232C48.9443 20.388 48.5 22.1444 48.5 24.0001C48.5 25.8557 48.9443 27.6121 49.7232 29.1646L53.5652 26.1851Z" fill="#FBBC05"/>
<path fill-rule="evenodd" clip-rule="evenodd" d="M60 17.0739C61.6884 17.0739 63.2043 17.6541 64.3961 18.7936L67.6945 15.4952C65.7029 13.6395 63.0997 12.5 60 12.5C55.5045 12.5 51.6154 15.077 49.7231 18.8355L53.5652 21.815C54.4695 19.0968 57.0047 17.0739 60 17.0739Z" fill="#EA4335"/>
<path d="M92.68 28.004C89.672 28.004 87.688 26.404 87.688 22.692V22.372C87.688 18.292 90.136 16.9 92.808 16.9C94.136 16.9 94.984 17.204 95.624 17.556V18.756C94.968 18.468 94.152 18.1 92.696 18.1C90.072 18.1 89.208 20.068 89.208 22.164V22.66C89.208 25.044 89.88 26.82 92.728 26.82C93.432 26.82 94.168 26.692 94.648 26.516V23.732H92.392V22.564H96.04V27.38C95.224 27.716 94.072 28.004 92.68 28.004ZM101.224 27.972C98.9356 27.972 97.6076 26.5 97.6076 24.02V23.748C97.6076 21.252 99.0636 19.716 101.24 19.716C103.512 19.716 104.872 21.204 104.872 23.7V23.956C104.872 26.452 103.4 27.972 101.224 27.972ZM101.256 26.852C102.648 26.852 103.448 25.876 103.448 24.1V23.668C103.448 21.524 102.44 20.836 101.208 20.836C99.8156 20.836 99.0156 21.828 99.0156 23.604V24.052C99.0156 26.196 100.024 26.852 101.256 26.852ZM109.661 27.972C107.373 27.972 106.045 26.5 106.045 24.02V23.748C106.045 21.252 107.501 19.716 109.677 19.716C111.949 19.716 113.309 21.204 113.309 23.7V23.956C113.309 26.452 111.837 27.972 109.661 27.972ZM109.693 26.852C111.085 26.852 111.885 25.876 111.885 24.1V23.668C111.885 21.524 110.877 20.836 109.645 20.836C108.253 20.836 107.453 21.828 107.453 23.604V24.052C107.453 26.196 108.461 26.852 109.693 26.852ZM117.779 30.18C115.363 30.18 114.179 29.636 114.179 28.452C114.179 27.604 114.851 27.092 115.667 26.852V26.772C115.203 26.596 114.867 26.356 114.867 25.812C114.867 25.316 115.139 24.836 115.779 24.372C115.171 23.988 114.787 23.348 114.787 22.452V22.292C114.787 20.66 116.051 19.716 117.811 19.716C118.227 19.716 118.611 19.764 118.979 19.86H121.683V20.884H120.323C120.659 21.236 120.819 21.684 120.819 22.228V22.388C120.819 24.084 119.491 24.884 117.795 24.884C117.315 24.884 116.883 24.82 116.483 24.692C116.275 24.852 116.147 25.06 116.147 25.3C116.147 25.7 116.387 25.812 116.899 25.812H119.075C120.531 25.812 121.603 26.292 121.603 27.828C121.603 29.252 120.499 30.18 117.779 30.18ZM117.747 29.108C119.539 29.108 120.179 28.836 120.179 28.036C120.179 27.396 119.843 27.092 118.819 27.092H116.579C116.035 27.284 115.619 27.62 115.619 28.26C115.619 28.98 116.259 29.108 117.747 29.108ZM117.795 23.86C118.851 23.86 119.475 23.412 119.475 22.452V22.212C119.475 21.204 118.803 20.74 117.795 20.74C116.755 20.74 116.147 21.284 116.147 22.18V22.42C116.147 23.412 116.787 23.86 117.795 23.86ZM123.011 27.828V16.372H124.387V27.828H123.011ZM129.9 27.972C127.388 27.972 126.108 26.42 126.108 23.972V23.732C126.108 20.964 127.756 19.716 129.612 19.716C131.788 19.716 132.828 20.98 132.828 23.476V24.244H127.516C127.612 26.132 128.54 26.804 130.124 26.804C131.18 26.804 131.868 26.58 132.588 26.196V27.204C132.124 27.556 131.212 27.972 129.9 27.972ZM129.548 20.82C128.652 20.82 127.644 21.316 127.516 23.14H131.388C131.388 21.476 130.748 20.82 129.548 20.82ZM146.654 27.844H134.03V26.692H139.598V24.484H135.55V19.988H143.678V17.94H135.518V16.788H145.086V21.14H136.958V23.332H145.47V24.484H141.022V26.692H146.654V27.844ZM161.197 28.932H159.853V24.1H157.741V22.948H159.853V20.596H158.061V19.444H159.853V15.956H161.197V28.932ZM163.885 29.62H162.525V15.636H163.885V29.62ZM157.949 17.316C157.901 21.46 156.237 24.452 152.797 26.74L151.837 25.7C154.717 24.02 156.301 21.332 156.541 18.484H152.445V17.316H157.949ZM178.545 23.668H165.921V22.532H171.521V20.42H172.945V22.532H178.545V23.668ZM177.969 19.988L177.329 21.092C175.185 20.724 172.913 19.348 172.225 17.924C171.633 19.348 169.441 20.708 167.169 21.092L166.545 19.988C168.881 19.748 171.505 18.228 171.505 16.228V15.796H172.977V16.228C172.977 18.244 175.937 19.828 177.969 19.988ZM167.265 25.06H176.977V29.684H175.569V26.212H167.265V25.06ZM192.788 22.644H190.564V29.62H189.14V15.636H190.564V21.46H192.788V22.644ZM185.94 17.7H181.764V16.548H185.94V17.7ZM187.972 20.1H179.684V18.964H187.972V20.1ZM187.188 23.844C187.188 25.492 185.876 26.772 183.892 26.772C181.908 26.772 180.58 25.524 180.58 23.844C180.58 22.196 181.908 20.884 183.892 20.884C185.876 20.884 187.188 22.164 187.188 23.844ZM185.796 23.844C185.796 22.804 184.98 22.068 183.892 22.068C182.804 22.068 182.004 22.804 182.004 23.844C182.004 24.868 182.788 25.588 183.892 25.588C185.044 25.588 185.796 24.868 185.796 23.844ZM205.08 29.62H203.656V15.636H205.08V29.62ZM200.984 17.124C200.904 21.572 198.312 24.836 194.488 26.916L193.624 25.844C196.92 24.26 199.192 21.332 199.448 18.324H194.248V17.124H200.984Z" fill="black" fill-opacity="0.54"/>
</svg>
