<svg width="256" height="48" viewBox="0 0 256 48" fill="none" xmlns="http://www.w3.org/2000/svg">
<rect width="256" height="48" rx="8" fill="#FEE500"/>
<g clip-path="url(#clip0_2085_865)">
<path fill-rule="evenodd" clip-rule="evenodd" d="M66.5 15.6001C61.5292 15.6001 57.5 18.7131 57.5 22.5524C57.5 24.9401 59.0584 27.0451 61.4316 28.2971L60.4331 31.9446C60.3448 32.2669 60.7134 32.5238 60.9965 32.337L65.3734 29.4483C65.7427 29.4839 66.1181 29.5047 66.5 29.5047C71.4705 29.5047 75.5 26.3919 75.5 22.5524C75.5 18.7131 71.4705 15.6001 66.5 15.6001" fill="black"/>
</g>
<path d="M90.956 28.328L86.732 22.744L90.924 17.368H92.652L88.604 22.584L92.892 28.328H90.956ZM84.78 28.328V17.368H86.428V28.328H84.78ZM96.0723 28.472C94.6003 28.472 93.5443 27.736 93.5443 26.152C93.5443 24.696 94.5043 23.976 96.0883 23.768L98.1363 23.528V22.824C98.1363 21.608 97.6243 21.336 96.1843 21.336C95.3843 21.336 94.7123 21.464 94.2163 21.576V20.472C94.9683 20.168 95.8003 20.008 96.8083 20.008C98.6483 20.008 99.7203 20.776 99.7203 22.424V28.328H98.4243L98.2803 27.64H98.1843C97.8003 28.12 97.1283 28.472 96.0723 28.472ZM96.4883 27.32C97.1603 27.32 97.8163 27.096 98.1363 26.792V24.616L96.4403 24.792C95.5763 24.888 95.1443 25.24 95.1443 26.088C95.1443 26.92 95.6723 27.32 96.4883 27.32ZM101.775 28.328V16.648H103.343V28.328H101.775ZM106.623 28.328L103.487 24.104L106.495 20.168H108.175L105.183 24.008L108.399 28.328H106.623ZM111.588 28.472C110.116 28.472 109.06 27.736 109.06 26.152C109.06 24.696 110.02 23.976 111.604 23.768L113.652 23.528V22.824C113.652 21.608 113.14 21.336 111.7 21.336C110.9 21.336 110.228 21.464 109.732 21.576V20.472C110.484 20.168 111.316 20.008 112.324 20.008C114.164 20.008 115.236 20.776 115.236 22.424V28.328H113.94L113.796 27.64H113.7C113.316 28.12 112.644 28.472 111.588 28.472ZM112.004 27.32C112.676 27.32 113.332 27.096 113.652 26.792V24.616L111.956 24.792C111.092 24.888 110.66 25.24 110.66 26.088C110.66 26.92 111.188 27.32 112.004 27.32ZM120.602 28.472C118.186 28.472 116.81 26.968 116.81 24.424V24.152C116.81 21.56 118.346 20.008 120.618 20.008C122.986 20.008 124.378 21.528 124.378 24.104V24.344C124.378 26.936 122.826 28.472 120.602 28.472ZM120.618 27.24C121.946 27.24 122.73 26.296 122.73 24.504V24.072C122.73 21.912 121.77 21.272 120.586 21.272C119.21 21.272 118.426 22.216 118.426 24.008V24.44C118.426 26.6 119.402 27.24 120.618 27.24ZM137.049 24.76H132.649V27.144H138.297V28.456H125.417V27.144H131.017V24.76H127.065V20.152H135.001V18.312H127.017V17H136.633V21.48H128.713V23.432H137.049V24.76ZM152.712 29.592H151.16V24.68H149.208V23.384H151.16V21.096H149.56V19.816H151.16V16.296H152.712V29.592ZM155.48 30.264H153.912V16.008H155.48V30.264ZM149.432 17.72C149.4 21.992 147.672 25.128 144.264 27.384L143.176 26.248C146.008 24.568 147.624 21.928 147.816 19.064H144.024V17.72H149.432ZM170.188 24.232H157.308V22.92H162.924V20.872H164.556V22.92H170.188V24.232ZM169.644 20.328L168.924 21.624C166.876 21.288 164.46 20.008 163.756 18.456C163.084 20.008 160.812 21.256 158.604 21.608L157.9 20.328C160.268 20.072 162.924 18.664 162.924 16.568V16.12H164.62V16.568C164.62 18.664 167.628 20.2 169.644 20.328ZM158.812 25.528H168.524V30.312H166.892V26.84H158.812V25.528ZM178.608 24.392C178.608 26.104 177.248 27.432 175.216 27.432C173.168 27.432 171.792 26.152 171.792 24.392C171.792 22.696 173.168 21.352 175.216 21.352C177.248 21.352 178.608 22.648 178.608 24.392ZM176.992 24.392C176.992 23.384 176.24 22.696 175.216 22.696C174.176 22.696 173.44 23.384 173.44 24.392C173.44 25.384 174.176 26.088 175.216 26.088C176.32 26.088 176.992 25.384 176.992 24.392ZM179.328 20.664H171.04V19.336H179.328V20.664ZM173.056 18.184V16.84H177.376V18.184H173.056ZM182.224 16.008V21.864H184.432V23.24H182.224V30.264H180.576V16.008H182.224ZM196.74 30.264H195.108V16.008H196.74V30.264ZM192.372 17.512C192.276 21.928 190.068 25.336 185.956 27.592L184.932 26.344C188.212 24.84 190.34 21.848 190.612 18.856H185.764V17.512H192.372Z" fill="black" fill-opacity="0.85"/>
<defs>
<clipPath id="clip0_2085_865">
<rect width="17.9999" height="18" fill="white" transform="translate(57.5 15)"/>
</clipPath>
</defs>
</svg>
