<svg width="430" height="218" viewBox="0 0 430 218" fill="none" xmlns="http://www.w3.org/2000/svg">
<rect width="429.23" height="217.082" fill="#344054"/>
<path d="M175.316 108.465C173.329 108.465 171.487 107.699 170.082 106.235L171.924 104.219C172.932 105.266 174.027 105.75 175.316 105.75C176.731 105.75 177.594 105.12 177.604 104.083C177.594 103.25 177.032 102.814 175.316 102.339L174.657 102.164C171.943 101.466 170.576 100.109 170.586 98.1318C170.576 95.6989 172.689 93.8863 175.588 93.8863C177.39 93.8863 179.116 94.6424 180.415 95.9606L178.592 97.9961C177.672 97.0656 176.673 96.6004 175.588 96.6004C174.337 96.6004 173.465 97.2207 173.475 98.1125C173.465 98.8103 173.969 99.1884 175.374 99.547L176.033 99.7215C179.087 100.545 180.483 101.883 180.492 104.025C180.483 106.642 178.36 108.465 175.316 108.465ZM191.998 112.38H189.245V106.817H189.187C188.557 107.922 187.539 108.465 186.221 108.465C183.478 108.465 181.539 106.196 181.549 103.192C181.539 100.187 183.478 97.9186 186.221 97.9186C187.539 97.9186 188.538 98.4517 189.187 99.547H189.245V98.19H191.998V112.38ZM186.822 105.944C188.286 105.944 189.333 104.81 189.342 103.192C189.333 101.573 188.286 100.439 186.822 100.439C185.349 100.439 184.312 101.583 184.321 103.192C184.312 104.801 185.349 105.944 186.822 105.944ZM203.446 98.19V108.193H200.693V106.72H200.635C200.082 107.796 198.977 108.465 197.553 108.465C195.284 108.465 193.956 106.807 193.966 104.122V98.19H196.719V103.657C196.709 105.111 197.397 105.944 198.58 105.944C199.656 105.944 200.548 105.237 200.693 103.618V98.19H203.446ZM210.183 105.944C211.646 105.944 212.693 104.81 212.703 103.192C212.693 101.573 211.646 100.439 210.183 100.439C208.71 100.439 207.672 101.583 207.682 103.192C207.672 104.801 208.71 105.944 210.183 105.944ZM215.378 108.193H212.625V106.817H212.548C211.918 107.922 210.9 108.465 209.582 108.465C206.839 108.465 204.9 106.196 204.91 103.192C204.9 100.187 206.839 97.9186 209.582 97.9186C210.9 97.9186 211.898 98.4517 212.548 99.547H212.625V98.19H215.378V108.193ZM227.272 108.193H224.519V106.817H224.461C223.831 107.922 222.813 108.465 221.495 108.465C218.752 108.465 216.813 106.196 216.823 103.192C216.813 100.187 218.752 97.9186 221.495 97.9186C222.813 97.9186 223.811 98.4517 224.461 99.547H224.519V94.1577H227.272V108.193ZM222.096 105.944C223.559 105.944 224.606 104.81 224.616 103.192C224.606 101.573 223.559 100.439 222.096 100.439C220.623 100.439 219.585 101.583 219.595 103.192C219.585 104.801 220.623 105.944 222.096 105.944ZM244.769 108.465C241.27 108.465 238.943 105.925 238.953 102.106V94.1577H241.822V102.106C241.812 104.384 242.927 105.75 244.769 105.75C246.61 105.75 247.725 104.384 247.735 102.106V94.1577H250.604V102.106C250.594 105.925 248.268 108.465 244.769 108.465ZM256.081 108.465C254.452 108.465 253.008 107.893 252.049 106.855L253.599 105.169C254.404 105.915 255.121 106.216 256.12 106.216C257.147 106.216 257.709 105.847 257.709 105.246C257.709 104.733 257.341 104.5 256.12 104.2L255.635 104.083C253.473 103.579 252.388 102.591 252.398 101.137C252.388 99.2756 254.113 97.9186 256.43 97.9186C257.845 97.9186 259.154 98.4517 260.191 99.4113L258.698 101.117C257.99 100.478 257.283 100.167 256.41 100.167C255.528 100.167 254.956 100.516 254.956 101.04C254.956 101.437 255.257 101.631 256.217 101.854L256.74 101.99C259.183 102.581 260.297 103.579 260.288 105.169C260.297 107.117 258.591 108.465 256.081 108.465Z" fill="white"/>
<path d="M235.318 106.255C234.29 106.255 233.554 105.528 233.573 104.529C233.554 103.55 234.29 102.823 235.318 102.823C236.316 102.823 237.063 103.55 237.082 104.529C237.063 105.528 236.316 106.255 235.318 106.255ZM235.318 99.5276C234.29 99.5276 233.554 98.8007 233.573 97.8023C233.554 96.8233 234.29 96.0963 235.318 96.0963C236.316 96.0963 237.063 96.8233 237.082 97.8023C237.063 98.8007 236.316 99.5276 235.318 99.5276Z" fill="#85FB5B"/>
<path d="M180.838 122.472V123.084H178V125.473H177.279V123.084H174.48V122.472H180.838ZM175.17 120.332C175.174 119.386 176.174 118.788 177.644 118.788C179.113 118.788 180.121 119.386 180.117 120.332C180.121 121.266 179.113 121.859 177.644 121.859C176.174 121.859 175.174 121.266 175.17 120.332ZM175.93 120.332C175.926 120.909 176.612 121.27 177.644 121.27C178.679 121.27 179.361 120.909 179.365 120.332C179.361 119.746 178.679 119.382 177.644 119.378C176.612 119.382 175.926 119.746 175.93 120.332ZM187.119 118.525V125.488H186.383V118.525H187.119ZM181.738 119.75V119.153H184.995V121.689H182.498V123.208C183.626 123.205 184.607 123.15 185.77 122.96L185.84 123.565C184.611 123.771 183.564 123.817 182.335 123.821H181.746V121.099H184.243V119.75H181.738ZM193.625 118.525V121.293H194.703V121.906H193.625V125.465H192.889V118.525H193.625ZM188.221 123.612C189.961 122.743 190.907 121.487 191.059 119.866H188.569V119.254H191.811C191.803 121.262 190.919 123.057 188.632 124.185L188.221 123.612ZM202.473 118.525V120.324H203.481V120.952H202.473V122.712H201.736V118.525H202.473ZM197.022 119.82V119.23H198.728V118.471H199.464V119.23H201.163V119.82H197.022ZM197.402 121.363C197.398 120.622 198.08 120.122 199.092 120.122C200.096 120.122 200.775 120.622 200.775 121.363C200.775 122.115 200.092 122.607 199.092 122.611C198.08 122.607 197.398 122.115 197.402 121.363ZM198.038 125.387V123.077H202.473V125.387H198.038ZM198.115 121.363C198.107 121.793 198.503 122.049 199.092 122.053C199.681 122.049 200.077 121.793 200.085 121.363C200.077 120.948 199.681 120.684 199.092 120.688C198.503 120.684 198.107 120.948 198.115 121.363ZM198.759 124.79H201.744V123.658H198.759V124.79ZM205.598 119.347C205.59 120.901 205.396 122.514 204.427 123.875L203.853 123.55C204.664 122.464 204.908 121.258 204.958 119.952H204.016V119.347H205.598ZM205.412 123.961C206.311 122.751 206.478 121.297 206.505 119.952H205.807V119.347H207.141C207.141 119.932 207.126 120.568 207.052 121.216H207.87V118.703H208.568V125.131H207.87V121.813H206.967C206.812 122.677 206.525 123.534 205.986 124.294L205.412 123.961ZM209.181 125.473V118.525H209.886V125.473H209.181ZM216.198 119.137V122.379H212.949V119.137H216.198ZM213.67 121.797H215.477V119.734H213.67V121.797ZM213.732 125.325V123.123H214.469V124.728H218.431V125.325H213.732ZM217.4 123.612V118.517H218.137V120.595H219.145V121.216H218.137V123.612H217.4ZM225.17 121.82V122.425H220.331V119.145H225.108V119.75H221.06V121.82H225.17ZM219.54 124.558V123.945H225.899V124.558H219.54ZM232.025 120.556V121.146H227.24V118.773H227.969V120.556H232.025ZM226.395 122.611V122.022H232.754V122.611H226.395ZM227.186 125.31V123.27H227.923V124.705H232.071V125.31H227.186ZM240.958 118.525V125.488H240.221V118.525H240.958ZM235.445 121.479C235.445 119.994 236.193 119.048 237.244 119.044C238.275 119.048 239.035 119.994 239.035 121.479C239.035 122.98 238.275 123.926 237.244 123.922C236.193 123.926 235.445 122.98 235.445 121.479ZM236.158 121.479C236.154 122.584 236.596 123.263 237.244 123.263C237.879 123.263 238.321 122.584 238.321 121.479C238.321 120.39 237.879 119.707 237.244 119.703C236.596 119.707 236.154 120.39 236.158 121.479ZM243.928 119.044C244.967 119.048 245.707 119.994 245.711 121.479C245.707 122.98 244.967 123.926 243.928 123.922C242.889 123.926 242.148 122.98 242.152 121.479C242.148 119.994 242.889 119.048 243.928 119.044ZM242.858 121.479C242.854 122.584 243.296 123.263 243.928 123.263C244.571 123.263 245.006 122.584 245.006 121.479C245.006 120.39 244.571 119.707 243.928 119.703C243.296 119.707 242.854 120.39 242.858 121.479ZM246.743 125.473V118.525H247.479V120.223H248.557V120.851H247.479V122.293H248.557V122.898H247.479V125.473H246.743ZM254.706 118.525V125.473H253.962V118.525H254.706ZM248.999 123.612C250.845 122.732 251.748 121.479 251.892 119.859H249.333V119.269H252.636C252.636 121.305 251.771 123.065 249.387 124.209L248.999 123.612Z" fill="white"/>
<g filter="url(#filter0_i_97_58)">
<path d="M182.291 172.769C178.678 171.775 175.506 169.276 173.769 165.634C170.582 158.966 173.405 150.982 180.073 147.795L227.044 125.355C227.312 125.222 227.429 125.149 227.381 124.704C227.342 124.25 227.241 124.217 226.917 124.125L198.709 116.656C198.642 116.636 198.584 116.624 198.518 116.604C187.43 113.551 179.575 104.186 178.498 92.7276C177.417 81.2284 183.422 70.5291 193.813 65.4778C193.837 65.468 193.868 65.4495 193.9 65.4391L238.308 44.2122C244.977 41.0256 252.961 43.848 256.156 50.5159C259.342 57.1843 256.52 65.1686 249.852 68.3633L205.491 89.5706C205.215 89.7039 205.106 89.7767 205.146 90.2301C205.186 90.6834 205.329 90.7468 205.61 90.8086L233.819 98.278C233.877 98.2984 233.943 98.3101 234.01 98.3298C245.097 101.383 252.952 110.748 254.03 122.206C255.11 133.706 249.097 144.405 238.715 149.456C238.691 149.466 238.659 149.484 238.636 149.494L191.618 171.962C188.591 173.404 185.299 173.618 182.3 172.793L182.291 172.769Z" fill="white" fill-opacity="0.05"/>
</g>
<defs>
<filter id="filter0_i_97_58" x="172.458" y="42.1471" width="85.0088" height="131.126" filterUnits="userSpaceOnUse" color-interpolation-filters="sRGB">
<feFlood flood-opacity="0" result="BackgroundImageFix"/>
<feBlend mode="normal" in="SourceGraphic" in2="BackgroundImageFix" result="shape"/>
<feColorMatrix in="SourceAlpha" type="matrix" values="0 0 0 0 0 0 0 0 0 0 0 0 0 0 0 0 0 0 127 0" result="hardAlpha"/>
<feOffset dy="-0.754141"/>
<feGaussianBlur stdDeviation="10.558"/>
<feComposite in2="hardAlpha" operator="arithmetic" k2="-1" k3="1"/>
<feColorMatrix type="matrix" values="0 0 0 0 1 0 0 0 0 1 0 0 0 0 1 0 0 0 0.31 0"/>
<feBlend mode="normal" in2="shape" result="effect1_innerShadow_97_58"/>
</filter>
</defs>
</svg>
