<svg width="430" height="218" viewBox="0 0 430 218" fill="none" xmlns="http://www.w3.org/2000/svg">
<rect width="429.23" height="217.082" fill="#344054"/>
<path d="M168.656 108.692C166.337 108.692 164.188 107.798 162.548 106.09L164.697 103.738C165.874 104.959 167.152 105.525 168.656 105.525C170.307 105.525 171.314 104.789 171.325 103.579C171.314 102.607 170.658 102.098 168.656 101.543L167.887 101.34C164.72 100.525 163.125 98.942 163.136 96.6347C163.125 93.7959 165.591 91.6808 168.973 91.6808C171.076 91.6808 173.09 92.563 174.605 94.1012L172.479 96.4764C171.404 95.3906 170.239 94.8477 168.973 94.8477C167.514 94.8477 166.496 95.5716 166.507 96.6121C166.496 97.4265 167.084 97.8676 168.724 98.286L169.493 98.4896C173.056 99.451 174.684 101.012 174.696 103.511C174.684 106.565 172.207 108.692 168.656 108.692ZM188.121 113.261H184.909V106.769H184.841C184.106 108.058 182.919 108.692 181.38 108.692C178.18 108.692 175.918 106.045 175.929 102.539C175.918 99.0325 178.18 96.3859 181.38 96.3859C182.919 96.3859 184.084 97.008 184.841 98.286H184.909V96.7026H188.121V113.261ZM182.082 105.751C183.79 105.751 185.011 104.428 185.022 102.539C185.011 100.65 183.79 99.3266 182.082 99.3266C180.362 99.3266 179.152 100.661 179.164 102.539C179.152 104.416 180.362 105.751 182.082 105.751ZM201.479 96.7026V108.375H198.267V106.656H198.199C197.555 107.911 196.265 108.692 194.603 108.692C191.956 108.692 190.406 106.757 190.418 103.624V96.7026H193.63V103.082C193.619 104.778 194.422 105.751 195.801 105.751C197.057 105.751 198.097 104.925 198.267 103.036V96.7026H201.479ZM209.34 105.751C211.048 105.751 212.27 104.428 212.281 102.539C212.27 100.65 211.048 99.3266 209.34 99.3266C207.621 99.3266 206.411 100.661 206.422 102.539C206.411 104.416 207.621 105.751 209.34 105.751ZM215.403 108.375H212.191V106.769H212.1C211.365 108.058 210.177 108.692 208.639 108.692C205.438 108.692 203.176 106.045 203.188 102.539C203.176 99.0325 205.438 96.3859 208.639 96.3859C210.177 96.3859 211.342 97.008 212.1 98.286H212.191V96.7026H215.403V108.375ZM229.281 108.375H226.069V106.769H226.001C225.266 108.058 224.078 108.692 222.54 108.692C219.339 108.692 217.077 106.045 217.088 102.539C217.077 99.0325 219.339 96.3859 222.54 96.3859C224.078 96.3859 225.243 97.008 226.001 98.286H226.069V91.9975H229.281V108.375ZM223.241 105.751C224.949 105.751 226.17 104.428 226.182 102.539C226.17 100.65 224.949 99.3266 223.241 99.3266C221.522 99.3266 220.312 100.661 220.323 102.539C220.312 104.416 221.522 105.751 223.241 105.751ZM249.697 108.692C245.614 108.692 242.9 105.728 242.911 101.272V91.9975H246.259V101.272C246.248 103.93 247.548 105.525 249.697 105.525C251.846 105.525 253.147 103.93 253.158 101.272V91.9975H256.506V101.272C256.495 105.728 253.78 108.692 249.697 108.692ZM262.897 108.692C260.997 108.692 259.311 108.024 258.192 106.814L260.001 104.846C260.94 105.717 261.777 106.068 262.942 106.068C264.141 106.068 264.797 105.638 264.797 104.936C264.797 104.337 264.367 104.066 262.942 103.715L262.377 103.579C259.854 102.991 258.588 101.837 258.599 100.141C258.588 97.9694 260.601 96.3859 263.304 96.3859C264.955 96.3859 266.482 97.008 267.692 98.1277L265.951 100.118C265.125 99.3718 264.299 99.0099 263.281 99.0099C262.252 99.0099 261.585 99.4171 261.585 100.028C261.585 100.492 261.935 100.718 263.055 100.978L263.666 101.136C266.516 101.826 267.817 102.991 267.805 104.846C267.817 107.119 265.826 108.692 262.897 108.692Z" fill="white"/>
<path d="M238.669 106.113C237.47 106.113 236.611 105.264 236.633 104.1C236.611 102.957 237.47 102.109 238.669 102.109C239.834 102.109 240.705 102.957 240.728 104.1C240.705 105.264 239.834 106.113 238.669 106.113ZM238.669 98.2634C237.47 98.2634 236.611 97.4152 236.633 96.2502C236.611 95.1079 237.47 94.2596 238.669 94.2596C239.834 94.2596 240.705 95.1079 240.728 96.2502C240.705 97.4152 239.834 98.2634 238.669 98.2634Z" fill="#85FB5B"/>
<path d="M175.441 124.871V125.586H172.129V128.373H171.288V125.586H168.021V124.871H175.441ZM168.827 122.374C168.831 121.27 169.998 120.574 171.713 120.574C173.428 120.574 174.604 121.27 174.599 122.374C174.604 123.464 173.428 124.157 171.713 124.157C169.998 124.157 168.831 123.464 168.827 122.374ZM169.713 122.374C169.709 123.048 170.509 123.469 171.713 123.469C172.921 123.469 173.717 123.048 173.722 122.374C173.717 121.691 172.921 121.266 171.713 121.261C170.509 121.266 169.709 121.691 169.713 122.374ZM182.77 120.266V128.391H181.91V120.266H182.77ZM176.49 121.696V120.999H180.291V123.958H177.377V125.731C178.694 125.726 179.838 125.663 181.195 125.441L181.277 126.147C179.843 126.387 178.621 126.441 177.187 126.446H176.499V123.27H179.413V121.696H176.49ZM190.361 120.266V123.496H191.619V124.211H190.361V128.364H189.502V120.266H190.361ZM184.055 126.202C186.086 125.188 187.19 123.722 187.366 121.831H184.462V121.116H188.244C188.235 123.46 187.203 125.555 184.534 126.871L184.055 126.202ZM200.685 120.266V122.365H201.862V123.098H200.685V125.152H199.826V120.266H200.685ZM194.324 121.777V121.089H196.315V120.203H197.175V121.089H199.156V121.777H194.324ZM194.768 123.578C194.763 122.713 195.56 122.13 196.74 122.13C197.912 122.13 198.704 122.713 198.704 123.578C198.704 124.455 197.908 125.03 196.74 125.034C195.56 125.03 194.763 124.455 194.768 123.578ZM195.51 128.274V125.577H200.685V128.274H195.51ZM195.6 123.578C195.591 124.08 196.053 124.378 196.74 124.383C197.428 124.378 197.889 124.08 197.898 123.578C197.889 123.093 197.428 122.786 196.74 122.79C196.053 122.786 195.591 123.093 195.6 123.578ZM196.351 127.577H199.835V126.256H196.351V127.577ZM204.332 121.225C204.323 123.039 204.097 124.921 202.965 126.509L202.296 126.129C203.241 124.862 203.526 123.455 203.585 121.931H202.486V121.225H204.332ZM204.115 126.609C205.164 125.197 205.359 123.501 205.39 121.931H204.576V121.225H206.132C206.132 121.908 206.114 122.65 206.028 123.406H206.983V120.474H207.797V127.975H206.983V124.102H205.929C205.748 125.111 205.413 126.111 204.784 126.998L204.115 126.609ZM208.512 128.373V120.266H209.335V128.373H208.512ZM216.701 120.981V124.763H212.909V120.981H216.701ZM213.751 124.084H215.859V121.677H213.751V124.084ZM213.823 128.201V125.631H214.683V127.504H219.307V128.201H213.823ZM218.103 126.202V120.257H218.963V122.682H220.139V123.406H218.963V126.202H218.103ZM227.169 124.111V124.817H221.523V120.99H227.097V121.696H222.374V124.111H227.169ZM220.6 127.305V126.591H228.02V127.305H220.6ZM235.168 122.637V123.324H229.585V120.555H230.436V122.637H235.168ZM228.599 125.034V124.347H236.019V125.034H228.599ZM229.522 128.183V125.803H230.382V127.477H235.222V128.183H229.522ZM245.592 120.266V128.391H244.732V120.266H245.592ZM239.158 123.713C239.158 121.981 240.032 120.877 241.258 120.872C242.461 120.877 243.348 121.981 243.348 123.713C243.348 125.464 242.461 126.568 241.258 126.563C240.032 126.568 239.158 125.464 239.158 123.713ZM239.991 123.713C239.986 125.003 240.502 125.794 241.258 125.794C242 125.794 242.515 125.003 242.515 123.713C242.515 122.442 242 121.646 241.258 121.641C240.502 121.646 239.986 122.442 239.991 123.713ZM249.057 120.872C250.27 120.877 251.134 121.981 251.138 123.713C251.134 125.464 250.27 126.568 249.057 126.563C247.845 126.568 246.981 125.464 246.985 123.713C246.981 121.981 247.845 120.877 249.057 120.872ZM247.808 123.713C247.804 125.003 248.32 125.794 249.057 125.794C249.808 125.794 250.315 125.003 250.315 123.713C250.315 122.442 249.808 121.646 249.057 121.641C248.32 121.646 247.804 122.442 247.808 123.713ZM252.342 128.373V120.266H253.201V122.247H254.459V122.98H253.201V124.663H254.459V125.369H253.201V128.373H252.342ZM261.634 120.266V128.373H260.766V120.266H261.634ZM254.975 126.202C257.128 125.175 258.182 123.713 258.35 121.822H255.364V121.135H259.218C259.218 123.51 258.209 125.564 255.427 126.898L254.975 126.202Z" fill="white"/>
<g filter="url(#filter0_i_97_58)">
<path d="M192.115 153.231C189.593 152.538 187.379 150.793 186.167 148.252C183.943 143.598 185.913 138.025 190.567 135.801L223.35 120.139C223.537 120.046 223.619 119.995 223.586 119.685C223.558 119.368 223.488 119.345 223.262 119.281L203.574 114.068C203.527 114.054 203.487 114.045 203.441 114.031C195.702 111.9 190.22 105.365 189.468 97.367C188.713 89.3412 192.905 81.8738 200.157 78.3482C200.173 78.3414 200.195 78.3285 200.217 78.3212L231.212 63.5061C235.866 61.282 241.439 63.2519 243.668 67.9057C245.892 72.5598 243.923 78.1324 239.269 80.3621L208.307 95.1636C208.115 95.2567 208.039 95.3074 208.067 95.6239C208.095 95.9403 208.194 95.9845 208.391 96.0276L228.078 101.241C228.119 101.255 228.165 101.263 228.212 101.277C235.95 103.408 241.433 109.944 242.185 117.941C242.939 125.967 238.742 133.435 231.495 136.96C231.479 136.967 231.457 136.98 231.44 136.987L198.625 152.668C196.512 153.674 194.214 153.824 192.122 153.248L192.115 153.231Z" fill="white" fill-opacity="0.05"/>
</g>
<defs>
<filter id="filter0_i_97_58" x="185.252" y="62.0648" width="59.3311" height="91.5181" filterUnits="userSpaceOnUse" color-interpolation-filters="sRGB">
<feFlood flood-opacity="0" result="BackgroundImageFix"/>
<feBlend mode="normal" in="SourceGraphic" in2="BackgroundImageFix" result="shape"/>
<feColorMatrix in="SourceAlpha" type="matrix" values="0 0 0 0 0 0 0 0 0 0 0 0 0 0 0 0 0 0 127 0" result="hardAlpha"/>
<feOffset dy="-0.526346"/>
<feGaussianBlur stdDeviation="7.36885"/>
<feComposite in2="hardAlpha" operator="arithmetic" k2="-1" k3="1"/>
<feColorMatrix type="matrix" values="0 0 0 0 1 0 0 0 0 1 0 0 0 0 1 0 0 0 0.31 0"/>
<feBlend mode="normal" in2="shape" result="effect1_innerShadow_97_58"/>
</filter>
</defs>
</svg>
