<svg width="186" height="253" viewBox="0 0 186 253" fill="none" xmlns="http://www.w3.org/2000/svg">
<path d="M13.0703 128.547C9.06641 128.547 5.35547 127.004 2.52344 124.055L6.23438 119.992C8.26562 122.102 10.4727 123.078 13.0703 123.078C15.9219 123.078 17.6602 121.809 17.6797 119.719C17.6602 118.039 16.5273 117.16 13.0703 116.203L11.7422 115.852C6.27344 114.445 3.51953 111.711 3.53906 107.727C3.51953 102.824 7.77734 99.1719 13.6172 99.1719C17.25 99.1719 20.7266 100.695 23.3438 103.352L19.6719 107.453C17.8164 105.578 15.8047 104.641 13.6172 104.641C11.0977 104.641 9.33984 105.891 9.35938 107.688C9.33984 109.094 10.3555 109.855 13.1875 110.578L14.5156 110.93C20.668 112.59 23.4805 115.285 23.5 119.602C23.4805 124.875 19.2031 128.547 13.0703 128.547ZM46.6844 136.438H41.1375V125.227H41.0203C39.7508 127.453 37.7 128.547 35.0438 128.547C29.5164 128.547 25.6102 123.977 25.6297 117.922C25.6102 111.867 29.5164 107.297 35.0438 107.297C37.7 107.297 39.7117 108.371 41.0203 110.578H41.1375V107.844H46.6844V136.438ZM36.2547 123.469C39.2039 123.469 41.3133 121.184 41.3328 117.922C41.3133 114.66 39.2039 112.375 36.2547 112.375C33.2859 112.375 31.1961 114.68 31.2156 117.922C31.1961 121.164 33.2859 123.469 36.2547 123.469ZM69.7516 107.844V128H64.2047V125.031H64.0875C62.9742 127.199 60.7477 128.547 57.8766 128.547C53.3063 128.547 50.6305 125.207 50.65 119.797V107.844H56.1969V118.859C56.1773 121.789 57.5641 123.469 59.9469 123.469C62.1148 123.469 63.9117 122.043 64.2047 118.781V107.844H69.7516ZM83.3266 123.469C86.2758 123.469 88.3852 121.184 88.4047 117.922C88.3852 114.66 86.2758 112.375 83.3266 112.375C80.3578 112.375 78.268 114.68 78.2875 117.922C78.268 121.164 80.3578 123.469 83.3266 123.469ZM93.7953 128H88.2484V125.227H88.0922C86.8227 127.453 84.7719 128.547 82.1156 128.547C76.5883 128.547 72.682 123.977 72.7016 117.922C72.682 111.867 76.5883 107.297 82.1156 107.297C84.7719 107.297 86.7836 108.371 88.0922 110.578H88.2484V107.844H93.7953V128ZM117.761 128H112.214V125.227H112.097C110.827 127.453 108.777 128.547 106.12 128.547C100.593 128.547 96.6867 123.977 96.7063 117.922C96.6867 111.867 100.593 107.297 106.12 107.297C108.777 107.297 110.788 108.371 112.097 110.578H112.214V99.7188H117.761V128ZM107.331 123.469C110.28 123.469 112.39 121.184 112.409 117.922C112.39 114.66 110.28 112.375 107.331 112.375C104.363 112.375 102.273 114.68 102.292 117.922C102.273 121.164 104.363 123.469 107.331 123.469ZM153.017 128.547C145.966 128.547 141.279 123.43 141.298 115.734V99.7188H147.08V115.734C147.06 120.324 149.306 123.078 153.017 123.078C156.728 123.078 158.974 120.324 158.994 115.734V99.7188H164.775V115.734C164.755 123.43 160.068 128.547 153.017 128.547ZM175.811 128.547C172.53 128.547 169.62 127.395 167.686 125.305L170.811 121.906C172.432 123.41 173.877 124.016 175.889 124.016C177.959 124.016 179.092 123.273 179.092 122.062C179.092 121.027 178.35 120.559 175.889 119.953L174.913 119.719C170.557 118.703 168.37 116.711 168.389 113.781C168.37 110.031 171.846 107.297 176.514 107.297C179.366 107.297 182.002 108.371 184.092 110.305L181.084 113.742C179.659 112.453 178.233 111.828 176.475 111.828C174.698 111.828 173.545 112.531 173.545 113.586C173.545 114.387 174.151 114.777 176.084 115.227L177.139 115.5C182.061 116.691 184.307 118.703 184.288 121.906C184.307 125.832 180.87 128.547 175.811 128.547Z" fill="white"/>
<path d="M133.973 124.094C131.903 124.094 130.419 122.629 130.458 120.617C130.419 118.645 131.903 117.18 133.973 117.18C135.985 117.18 137.489 118.645 137.528 120.617C137.489 122.629 135.985 124.094 133.973 124.094ZM133.973 110.539C131.903 110.539 130.419 109.074 130.458 107.062C130.419 105.09 131.903 103.625 133.973 103.625C135.985 103.625 137.489 105.09 137.528 107.062C137.489 109.074 135.985 110.539 133.973 110.539Z" fill="#85FB5B"/>
<path d="M24.8125 154.281V155.516H19.0938V160.328H17.6406V155.516H12V154.281H24.8125ZM13.3906 149.969C13.3984 148.062 15.4141 146.859 18.375 146.859C21.3359 146.859 23.3672 148.062 23.3594 149.969C23.3672 151.852 21.3359 153.047 18.375 153.047C15.4141 153.047 13.3984 151.852 13.3906 149.969ZM14.9219 149.969C14.9141 151.133 16.2969 151.859 18.375 151.859C20.4609 151.859 21.8359 151.133 21.8438 149.969C21.8359 148.789 20.4609 148.055 18.375 148.047C16.2969 148.055 14.9141 148.789 14.9219 149.969ZM37.4688 146.328V160.359H35.9844V146.328H37.4688ZM26.625 148.797V147.594H33.1875V152.703H28.1562V155.766C30.4297 155.758 32.4062 155.648 34.75 155.266L34.8906 156.484C32.4141 156.898 30.3047 156.992 27.8281 157H26.6406V151.516H31.6719V148.797H26.625ZM50.5781 146.328V151.906H52.75V153.141H50.5781V160.312H49.0938V146.328H50.5781ZM39.6875 156.578C43.1953 154.828 45.1016 152.297 45.4062 149.031H40.3906V147.797H46.9219C46.9062 151.844 45.125 155.461 40.5156 157.734L39.6875 156.578ZM68.4062 146.328V149.953H70.4375V151.219H68.4062V154.766H66.9219V146.328H68.4062ZM57.4219 148.938V147.75H60.8594V146.219H62.3438V147.75H65.7656V148.938H57.4219ZM58.1875 152.047C58.1797 150.555 59.5547 149.547 61.5938 149.547C63.6172 149.547 64.9844 150.555 64.9844 152.047C64.9844 153.562 63.6094 154.555 61.5938 154.562C59.5547 154.555 58.1797 153.562 58.1875 152.047ZM59.4688 160.156V155.5H68.4062V160.156H59.4688ZM59.625 152.047C59.6094 152.914 60.4062 153.43 61.5938 153.438C62.7812 153.43 63.5781 152.914 63.5938 152.047C63.5781 151.211 62.7812 150.68 61.5938 150.688C60.4062 150.68 59.6094 151.211 59.625 152.047ZM60.9219 158.953H66.9375V156.672H60.9219V158.953ZM74.7031 147.984C74.6875 151.117 74.2969 154.367 72.3438 157.109L71.1875 156.453C72.8203 154.266 73.3125 151.836 73.4141 149.203H71.5156V147.984H74.7031ZM74.3281 157.281C76.1406 154.844 76.4766 151.914 76.5312 149.203H75.125V147.984H77.8125C77.8125 149.164 77.7812 150.445 77.6328 151.75H79.2812V146.688H80.6875V159.641H79.2812V152.953H77.4609C77.1484 154.695 76.5703 156.422 75.4844 157.953L74.3281 157.281ZM81.9219 160.328V146.328H83.3438V160.328H81.9219ZM96.0625 147.562V154.094H89.5156V147.562H96.0625ZM90.9688 152.922H94.6094V148.766H90.9688V152.922ZM91.0938 160.031V155.594H92.5781V158.828H100.562V160.031H91.0938ZM98.4844 156.578V146.312H99.9688V150.5H102V151.75H99.9688V156.578H98.4844ZM114.141 152.969V154.188H104.391V147.578H114.016V148.797H105.859V152.969H114.141ZM102.797 158.484V157.25H115.609V158.484H102.797ZM127.953 150.422V151.609H118.312V146.828H119.781V150.422H127.953ZM116.609 154.562V153.375H129.422V154.562H116.609ZM118.203 160V155.891H119.688V158.781H128.047V160H118.203ZM145.953 146.328V160.359H144.469V146.328H145.953ZM134.844 152.281C134.844 149.289 136.352 147.383 138.469 147.375C140.547 147.383 142.078 149.289 142.078 152.281C142.078 155.305 140.547 157.211 138.469 157.203C136.352 157.211 134.844 155.305 134.844 152.281ZM136.281 152.281C136.273 154.508 137.164 155.875 138.469 155.875C139.75 155.875 140.641 154.508 140.641 152.281C140.641 150.086 139.75 148.711 138.469 148.703C137.164 148.711 136.273 150.086 136.281 152.281ZM151.938 147.375C154.031 147.383 155.523 149.289 155.531 152.281C155.523 155.305 154.031 157.211 151.938 157.203C149.844 157.211 148.352 155.305 148.359 152.281C148.352 149.289 149.844 147.383 151.938 147.375ZM149.781 152.281C149.773 154.508 150.664 155.875 151.938 155.875C153.234 155.875 154.109 154.508 154.109 152.281C154.109 150.086 153.234 148.711 151.938 148.703C150.664 148.711 149.773 150.086 149.781 152.281ZM157.609 160.328V146.328H159.094V149.75H161.266V151.016H159.094V153.922H161.266V155.141H159.094V160.328H157.609ZM173.656 146.328V160.328H172.156V146.328H173.656ZM162.156 156.578C165.875 154.805 167.695 152.281 167.984 149.016H162.828V147.828H169.484C169.484 151.93 167.742 155.477 162.938 157.781L162.156 156.578Z" fill="white"/>
<g filter="url(#filter0_i_1687_1328)">
<path d="M19.5723 250.764C12.5225 248.315 6.54605 242.932 3.57202 235.466C-1.8857 221.794 4.77211 206.296 18.4438 200.838L114.743 162.405C115.293 162.177 115.535 162.046 115.499 161.156C115.48 160.25 115.285 160.17 114.653 159.946L59.5701 141.397C59.4405 141.349 59.3271 141.317 59.1974 141.269C37.562 133.744 23.1799 114.102 22.5425 91.1863C21.9048 68.19 35.2442 47.714 56.5591 39.0388C56.6076 39.0224 56.6722 38.9898 56.7369 38.9734L147.784 2.61591C161.456 -2.84181 176.954 3.81599 182.428 17.4876C187.886 31.1592 181.228 46.6573 167.556 52.1312L76.6058 88.4559C76.0402 88.6846 75.8141 88.815 75.8337 89.7213C75.8533 90.6276 76.129 90.7722 76.6799 90.9319L131.763 109.481C131.876 109.529 132.006 109.561 132.136 109.609C153.771 117.133 168.153 136.776 168.79 159.691C169.428 182.687 156.073 203.164 134.774 211.839C134.725 211.855 134.661 211.888 134.612 211.904L38.2158 250.386C32.0102 252.853 25.4391 252.846 19.5887 250.813L19.5723 250.764Z" fill="white" fill-opacity="0.05"/>
</g>
<defs>
<filter id="filter0_i_1687_1328" x="1.66522" y="-0.291016" width="182.669" height="252.582" filterUnits="userSpaceOnUse" color-interpolation-filters="sRGB">
<feFlood flood-opacity="0" result="BackgroundImageFix"/>
<feBlend mode="normal" in="SourceGraphic" in2="BackgroundImageFix" result="shape"/>
<feColorMatrix in="SourceAlpha" type="matrix" values="0 0 0 0 0 0 0 0 0 0 0 0 0 0 0 0 0 0 127 0" result="hardAlpha"/>
<feOffset dy="-1"/>
<feGaussianBlur stdDeviation="19"/>
<feComposite in2="hardAlpha" operator="arithmetic" k2="-1" k3="1"/>
<feColorMatrix type="matrix" values="0 0 0 0 1 0 0 0 0 1 0 0 0 0 1 0 0 0 0.11 0"/>
<feBlend mode="normal" in2="shape" result="effect1_innerShadow_1687_1328"/>
</filter>
</defs>
</svg>
