<svg width="16" height="16" viewBox="0 0 16 16" fill="none" xmlns="http://www.w3.org/2000/svg">
<path d="M13.0001 8.38145L8.00012 13.3335L3.00012 8.38145C2.67032 8.06053 2.41055 7.67479 2.23715 7.24854C2.06375 6.82229 1.98049 6.36475 1.99261 5.90474C2.00473 5.44473 2.11196 4.99221 2.30756 4.57568C2.50315 4.15914 2.78288 3.78762 3.12911 3.4845C3.47534 3.18139 3.88059 2.95324 4.31933 2.81444C4.75806 2.67563 5.22079 2.62917 5.67836 2.67799C6.13594 2.7268 6.57845 2.86982 6.97804 3.09806C7.37762 3.32629 7.72562 3.63478 8.00012 4.00412C8.27581 3.63747 8.62421 3.33166 9.02352 3.10585C9.42283 2.88004 9.86445 2.73908 10.3207 2.6918C10.777 2.64451 11.2382 2.69192 11.6753 2.83105C12.1124 2.97017 12.5161 3.19803 12.8612 3.50036C13.2062 3.80269 13.4851 4.17297 13.6804 4.58805C13.8757 5.00312 13.9833 5.45404 13.9963 5.91259C14.0094 6.37114 13.9276 6.82745 13.7562 7.25295C13.5848 7.67846 13.3274 8.064 13.0001 8.38545" fill="#FF6330"/>
<path d="M13.0001 8.38145L8.00012 13.3335L3.00012 8.38145C2.67032 8.06053 2.41055 7.67479 2.23715 7.24854C2.06375 6.82229 1.98049 6.36475 1.99261 5.90474C2.00473 5.44473 2.11196 4.99221 2.30756 4.57568C2.50315 4.15914 2.78288 3.78762 3.12911 3.4845C3.47534 3.18139 3.88059 2.95324 4.31933 2.81444C4.75806 2.67563 5.22079 2.62917 5.67836 2.67799C6.13594 2.7268 6.57845 2.86982 6.97804 3.09806C7.37762 3.32629 7.72562 3.63478 8.00012 4.00412C8.27581 3.63747 8.62421 3.33166 9.02352 3.10585C9.42283 2.88004 9.86445 2.73908 10.3207 2.6918C10.777 2.64451 11.2382 2.69192 11.6753 2.83105C12.1124 2.97017 12.5161 3.19803 12.8612 3.50036C13.2062 3.80269 13.4851 4.17297 13.6804 4.58805C13.8757 5.00312 13.9833 5.45404 13.9963 5.91259C14.0094 6.37114 13.9276 6.82745 13.7562 7.25295C13.5848 7.67846 13.3274 8.064 13.0001 8.38545" stroke="#FF6330" stroke-linecap="round" stroke-linejoin="round"/>
</svg>
