<svg width="17" height="18" viewBox="0 0 17 18" fill="none" xmlns="http://www.w3.org/2000/svg">
<path d="M8.49992 15.0428C8.11034 15.0428 7.77683 14.9041 7.4994 14.6267C7.22197 14.3492 7.08325 14.0157 7.08325 13.6261C7.08325 13.2366 7.22197 12.903 7.4994 12.6256C7.77683 12.3482 8.11034 12.2095 8.49992 12.2095C8.8895 12.2095 9.22301 12.3482 9.50044 12.6256C9.77787 12.903 9.91659 13.2366 9.91659 13.6261C9.91659 14.0157 9.77787 14.3492 9.50044 14.6267C9.22301 14.9041 8.8895 15.0428 8.49992 15.0428ZM8.49992 10.7928C8.11034 10.7928 7.77683 10.6541 7.4994 10.3767C7.22197 10.0992 7.08325 9.76572 7.08325 9.37614C7.08325 8.98656 7.22197 8.65305 7.4994 8.37562C7.77683 8.09819 8.11034 7.95947 8.49992 7.95947C8.8895 7.95947 9.22301 8.09819 9.50044 8.37562C9.77787 8.65305 9.91659 8.98656 9.91659 9.37614C9.91659 9.76572 9.77787 10.0992 9.50044 10.3767C9.22301 10.6541 8.8895 10.7928 8.49992 10.7928ZM8.49992 6.54281C8.11034 6.54281 7.77683 6.40409 7.4994 6.12666C7.22197 5.84923 7.08325 5.51572 7.08325 5.12614C7.08325 4.73656 7.22197 4.40305 7.4994 4.12562C7.77683 3.84819 8.11034 3.70947 8.49992 3.70947C8.8895 3.70947 9.22301 3.84819 9.50044 4.12562C9.77787 4.40305 9.91659 4.73656 9.91659 5.12614C9.91659 5.51572 9.77787 5.84923 9.50044 6.12666C9.22301 6.40409 8.8895 6.54281 8.49992 6.54281Z" fill="#98A2B3"/>
</svg>
