<svg width="24" height="25" viewBox="0 0 24 25" fill="none" xmlns="http://www.w3.org/2000/svg">
<path d="M9.12695 5.71753L10.5823 5.60716L10.7774 8.17977L9.32206 8.29014L9.12695 5.71753Z" fill="url(#paint0_linear_2194_832)"/>
<path d="M2.82085 9.44646C2.6071 9.17421 2.6011 8.79396 2.76835 8.47671C2.9356 8.16096 3.1786 7.85271 3.53035 7.86771C3.77635 7.87821 3.97885 8.07471 4.0636 8.33271C4.1161 8.34621 4.16785 8.36496 4.2181 8.38896L6.4681 9.47496C6.6639 9.56943 6.88169 9.60894 7.09819 9.58925C7.3147 9.56957 7.52179 9.49144 7.69735 9.36321L9.3646 8.14671C9.54939 8.01185 9.78018 7.95592 10.0062 7.99122C10.2322 8.02653 10.435 8.15017 10.5698 8.33496C10.7047 8.51975 10.7606 8.75055 10.7253 8.97658C10.69 9.2026 10.5664 9.40535 10.3816 9.54021L8.7136 10.7567C8.28576 11.0688 7.78121 11.259 7.25378 11.3068C6.72636 11.3546 6.19584 11.2583 5.71885 11.0282L3.53035 9.96246C3.34585 9.87171 2.99035 9.66246 2.82085 9.44646Z" fill="#FFB93C"/>
<path d="M2.82085 9.44646C2.6071 9.17421 2.6011 8.79396 2.76835 8.47671C2.9356 8.16096 3.1786 7.85271 3.53035 7.86771C3.77635 7.87821 3.97885 8.07471 4.0636 8.33271C4.1161 8.34621 4.16785 8.36496 4.2181 8.38896L6.4681 9.47496C6.6639 9.56943 6.88169 9.60894 7.09819 9.58925C7.3147 9.56957 7.52179 9.49144 7.69735 9.36321L9.3646 8.14671C9.54939 8.01185 9.78018 7.95592 10.0062 7.99122C10.2322 8.02653 10.435 8.15017 10.5698 8.33496C10.7047 8.51975 10.7606 8.75055 10.7253 8.97658C10.69 9.2026 10.5664 9.40535 10.3816 9.54021L8.7136 10.7567C8.28576 11.0688 7.78121 11.259 7.25378 11.3068C6.72636 11.3546 6.19584 11.2583 5.71885 11.0282L3.53035 9.96246C3.34585 9.87171 2.99035 9.66246 2.82085 9.44646Z" fill="url(#paint1_radial_2194_832)"/>
<path d="M2.82085 9.44646C2.6071 9.17421 2.6011 8.79396 2.76835 8.47671C2.9356 8.16096 3.1786 7.85271 3.53035 7.86771C3.77635 7.87821 3.97885 8.07471 4.0636 8.33271C4.1161 8.34621 4.16785 8.36496 4.2181 8.38896L6.4681 9.47496C6.6639 9.56943 6.88169 9.60894 7.09819 9.58925C7.3147 9.56957 7.52179 9.49144 7.69735 9.36321L9.3646 8.14671C9.54939 8.01185 9.78018 7.95592 10.0062 7.99122C10.2322 8.02653 10.435 8.15017 10.5698 8.33496C10.7047 8.51975 10.7606 8.75055 10.7253 8.97658C10.69 9.2026 10.5664 9.40535 10.3816 9.54021L8.7136 10.7567C8.28576 11.0688 7.78121 11.259 7.25378 11.3068C6.72636 11.3546 6.19584 11.2583 5.71885 11.0282L3.53035 9.96246C3.34585 9.87171 2.99035 9.66246 2.82085 9.44646Z" fill="url(#paint2_radial_2194_832)"/>
<path d="M2.82085 9.44646C2.6071 9.17421 2.6011 8.79396 2.76835 8.47671C2.9356 8.16096 3.1786 7.85271 3.53035 7.86771C3.77635 7.87821 3.97885 8.07471 4.0636 8.33271C4.1161 8.34621 4.16785 8.36496 4.2181 8.38896L6.4681 9.47496C6.6639 9.56943 6.88169 9.60894 7.09819 9.58925C7.3147 9.56957 7.52179 9.49144 7.69735 9.36321L9.3646 8.14671C9.54939 8.01185 9.78018 7.95592 10.0062 7.99122C10.2322 8.02653 10.435 8.15017 10.5698 8.33496C10.7047 8.51975 10.7606 8.75055 10.7253 8.97658C10.69 9.2026 10.5664 9.40535 10.3816 9.54021L8.7136 10.7567C8.28576 11.0688 7.78121 11.259 7.25378 11.3068C6.72636 11.3546 6.19584 11.2583 5.71885 11.0282L3.53035 9.96246C3.34585 9.87171 2.99035 9.66246 2.82085 9.44646Z" fill="url(#paint3_radial_2194_832)"/>
<path d="M2.82085 9.44646C2.6071 9.17421 2.6011 8.79396 2.76835 8.47671C2.9356 8.16096 3.1786 7.85271 3.53035 7.86771C3.77635 7.87821 3.97885 8.07471 4.0636 8.33271C4.1161 8.34621 4.16785 8.36496 4.2181 8.38896L6.4681 9.47496C6.6639 9.56943 6.88169 9.60894 7.09819 9.58925C7.3147 9.56957 7.52179 9.49144 7.69735 9.36321L9.3646 8.14671C9.54939 8.01185 9.78018 7.95592 10.0062 7.99122C10.2322 8.02653 10.435 8.15017 10.5698 8.33496C10.7047 8.51975 10.7606 8.75055 10.7253 8.97658C10.69 9.2026 10.5664 9.40535 10.3816 9.54021L8.7136 10.7567C8.28576 11.0688 7.78121 11.259 7.25378 11.3068C6.72636 11.3546 6.19584 11.2583 5.71885 11.0282L3.53035 9.96246C3.34585 9.87171 2.99035 9.66246 2.82085 9.44646Z" fill="url(#paint4_radial_2194_832)"/>
<path d="M2.82085 9.44646C2.6071 9.17421 2.6011 8.79396 2.76835 8.47671C2.9356 8.16096 3.1786 7.85271 3.53035 7.86771C3.77635 7.87821 3.97885 8.07471 4.0636 8.33271C4.1161 8.34621 4.16785 8.36496 4.2181 8.38896L6.4681 9.47496C6.6639 9.56943 6.88169 9.60894 7.09819 9.58925C7.3147 9.56957 7.52179 9.49144 7.69735 9.36321L9.3646 8.14671C9.54939 8.01185 9.78018 7.95592 10.0062 7.99122C10.2322 8.02653 10.435 8.15017 10.5698 8.33496C10.7047 8.51975 10.7606 8.75055 10.7253 8.97658C10.69 9.2026 10.5664 9.40535 10.3816 9.54021L8.7136 10.7567C8.28576 11.0688 7.78121 11.259 7.25378 11.3068C6.72636 11.3546 6.19584 11.2583 5.71885 11.0282L3.53035 9.96246C3.34585 9.87171 2.99035 9.66246 2.82085 9.44646Z" fill="url(#paint5_radial_2194_832)"/>
<path d="M9.8521 7.25883L10.4071 6.96633C10.5414 6.89526 10.6943 6.86725 10.8451 6.88608L12.3473 8.21658C12.1756 9.55833 12.4448 10.4726 13.0223 11.2743L9.8326 13.6968C8.69485 11.7206 8.3851 9.89208 8.6656 8.93133C8.9041 8.01033 9.4531 7.50783 9.8521 7.25883Z" fill="url(#paint6_linear_2194_832)"/>
<path d="M9.8521 7.25883L10.4071 6.96633C10.5414 6.89526 10.6943 6.86725 10.8451 6.88608L12.3473 8.21658C12.1756 9.55833 12.4448 10.4726 13.0223 11.2743L9.8326 13.6968C8.69485 11.7206 8.3851 9.89208 8.6656 8.93133C8.9041 8.01033 9.4531 7.50783 9.8521 7.25883Z" fill="url(#paint7_radial_2194_832)"/>
<path d="M9.8521 7.25883L10.4071 6.96633C10.5414 6.89526 10.6943 6.86725 10.8451 6.88608L12.3473 8.21658C12.1756 9.55833 12.4448 10.4726 13.0223 11.2743L9.8326 13.6968C8.69485 11.7206 8.3851 9.89208 8.6656 8.93133C8.9041 8.01033 9.4531 7.50783 9.8521 7.25883Z" fill="url(#paint8_radial_2194_832)"/>
<path d="M9.8521 7.25883L10.4071 6.96633C10.5414 6.89526 10.6943 6.86725 10.8451 6.88608L12.3473 8.21658C12.1756 9.55833 12.4448 10.4726 13.0223 11.2743L9.8326 13.6968C8.69485 11.7206 8.3851 9.89208 8.6656 8.93133C8.9041 8.01033 9.4531 7.50783 9.8521 7.25883Z" fill="url(#paint9_radial_2194_832)"/>
<path d="M9.8521 7.25883L10.4071 6.96633C10.5414 6.89526 10.6943 6.86725 10.8451 6.88608L12.3473 8.21658C12.1756 9.55833 12.4448 10.4726 13.0223 11.2743L9.8326 13.6968C8.69485 11.7206 8.3851 9.89208 8.6656 8.93133C8.9041 8.01033 9.4531 7.50783 9.8521 7.25883Z" fill="url(#paint10_radial_2194_832)"/>
<path d="M9.8521 7.25883L10.4071 6.96633C10.5414 6.89526 10.6943 6.86725 10.8451 6.88608L12.3473 8.21658C12.1756 9.55833 12.4448 10.4726 13.0223 11.2743L9.8326 13.6968C8.69485 11.7206 8.3851 9.89208 8.6656 8.93133C8.9041 8.01033 9.4531 7.50783 9.8521 7.25883Z" fill="url(#paint11_radial_2194_832)"/>
<path d="M16.6532 10.0795C16.9141 10.0795 17.1257 9.86798 17.1257 9.60702C17.1257 9.34607 16.9141 9.13452 16.6532 9.13452C16.3922 9.13452 16.1807 9.34607 16.1807 9.60702C16.1807 9.86798 16.3922 10.0795 16.6532 10.0795Z" fill="url(#paint12_radial_2194_832)"/>
<g filter="url(#filter0_i_2194_832)">
<path fill-rule="evenodd" clip-rule="evenodd" d="M14.778 8.20523C14.5849 8.04617 14.3525 7.94226 14.1052 7.9045C13.8579 7.86674 13.605 7.89654 13.3732 7.99073L11.358 8.81048L10.7085 7.21298L12.7237 6.39323C13.2433 6.182 13.8103 6.11509 14.3648 6.19958C14.9193 6.28408 15.4407 6.51683 15.8737 6.87323L18.1215 8.75423C18.22 8.83673 18.282 8.95479 18.2939 9.08274C18.3059 9.2107 18.2668 9.33819 18.1852 9.43748L17.7082 10.0165C17.6674 10.0662 17.6171 10.1073 17.5602 10.1375C17.5034 10.1677 17.4411 10.1863 17.3771 10.1923C17.313 10.1983 17.2484 10.1916 17.1869 10.1725C17.1254 10.1533 17.0684 10.1223 17.019 10.081L14.778 8.20523Z" fill="#FFC538"/>
</g>
<path d="M13.3869 8.09734L12.3939 6.05884L10.3209 7.05109C10.0624 7.18119 9.86485 7.40689 9.77008 7.68029C9.67532 7.95368 9.69082 8.25324 9.81331 8.51538C9.93579 8.77753 10.1556 8.98163 10.4261 9.08435C10.6966 9.18708 10.9965 9.18035 11.2621 9.06559L13.3869 8.09734Z" fill="#379FFB"/>
<path d="M13.3869 8.09734L12.3939 6.05884L10.3209 7.05109C10.0624 7.18119 9.86485 7.40689 9.77008 7.68029C9.67532 7.95368 9.69082 8.25324 9.81331 8.51538C9.93579 8.77753 10.1556 8.98163 10.4261 9.08435C10.6966 9.18708 10.9965 9.18035 11.2621 9.06559L13.3869 8.09734Z" fill="url(#paint13_linear_2194_832)"/>
<path d="M13.3869 8.09734L12.3939 6.05884L10.3209 7.05109C10.0624 7.18119 9.86485 7.40689 9.77008 7.68029C9.67532 7.95368 9.69082 8.25324 9.81331 8.51538C9.93579 8.77753 10.1556 8.98163 10.4261 9.08435C10.6966 9.18708 10.9965 9.18035 11.2621 9.06559L13.3869 8.09734Z" fill="url(#paint14_radial_2194_832)"/>
<path d="M13.3869 8.09734L12.3939 6.05884L10.3209 7.05109C10.0624 7.18119 9.86485 7.40689 9.77008 7.68029C9.67532 7.95368 9.69082 8.25324 9.81331 8.51538C9.93579 8.77753 10.1556 8.98163 10.4261 9.08435C10.6966 9.18708 10.9965 9.18035 11.2621 9.06559L13.3869 8.09734Z" fill="url(#paint15_radial_2194_832)"/>
<path d="M4.17021 8.07251H4.05021C3.776 8.07251 3.55371 8.2948 3.55371 8.56901C3.55371 8.84322 3.776 9.06551 4.05021 9.06551H4.17021C4.44442 9.06551 4.66671 8.84322 4.66671 8.56901C4.66671 8.2948 4.44442 8.07251 4.17021 8.07251Z" fill="#FFC039"/>
<path d="M6.76131 17.0291C6.37896 18.3351 5.99246 19.6398 5.60181 20.9434L6.40731 21.9859C7.05231 20.7754 8.38806 18.2464 8.60481 17.7409C8.78631 17.3164 9.02931 17.2084 9.21081 17.0996L10.2158 16.4959L8.73606 14.6411C8.64606 14.7116 8.29056 14.9749 7.74606 15.4466C7.19556 15.9244 6.86931 16.6601 6.76131 17.0291Z" fill="url(#paint16_linear_2194_832)"/>
<path d="M6.76131 17.0291C6.37896 18.3351 5.99246 19.6398 5.60181 20.9434L6.40731 21.9859C7.05231 20.7754 8.38806 18.2464 8.60481 17.7409C8.78631 17.3164 9.02931 17.2084 9.21081 17.0996L10.2158 16.4959L8.73606 14.6411C8.64606 14.7116 8.29056 14.9749 7.74606 15.4466C7.19556 15.9244 6.86931 16.6601 6.76131 17.0291Z" fill="url(#paint17_linear_2194_832)"/>
<path d="M6.76131 17.0291C6.37896 18.3351 5.99246 19.6398 5.60181 20.9434L6.40731 21.9859C7.05231 20.7754 8.38806 18.2464 8.60481 17.7409C8.78631 17.3164 9.02931 17.2084 9.21081 17.0996L10.2158 16.4959L8.73606 14.6411C8.64606 14.7116 8.29056 14.9749 7.74606 15.4466C7.19556 15.9244 6.86931 16.6601 6.76131 17.0291Z" fill="url(#paint18_radial_2194_832)"/>
<path d="M6.76131 17.0291C6.37896 18.3351 5.99246 19.6398 5.60181 20.9434L6.40731 21.9859C7.05231 20.7754 8.38806 18.2464 8.60481 17.7409C8.78631 17.3164 9.02931 17.2084 9.21081 17.0996L10.2158 16.4959L8.73606 14.6411C8.64606 14.7116 8.29056 14.9749 7.74606 15.4466C7.19556 15.9244 6.86931 16.6601 6.76131 17.0291Z" fill="url(#paint19_radial_2194_832)"/>
<g filter="url(#filter1_i_2194_832)">
<path d="M3.77941 20.8901L5.62441 20.9426L6.41041 21.9859L5.94241 22.8739C5.9194 22.9175 5.88013 22.9503 5.8331 22.9652C5.78607 22.9801 5.73507 22.9759 5.69116 22.9534L3.13366 21.6409C2.98591 21.5659 2.89591 21.3949 2.98591 21.2561C3.17116 20.9711 3.54091 20.8901 3.77941 20.8901Z" fill="#534E8C"/>
<path d="M3.77941 20.8901L5.62441 20.9426L6.41041 21.9859L5.94241 22.8739C5.9194 22.9175 5.88013 22.9503 5.8331 22.9652C5.78607 22.9801 5.73507 22.9759 5.69116 22.9534L3.13366 21.6409C2.98591 21.5659 2.89591 21.3949 2.98591 21.2561C3.17116 20.9711 3.54091 20.8901 3.77941 20.8901Z" fill="url(#paint20_linear_2194_832)"/>
<path d="M3.77941 20.8901L5.62441 20.9426L6.41041 21.9859L5.94241 22.8739C5.9194 22.9175 5.88013 22.9503 5.8331 22.9652C5.78607 22.9801 5.73507 22.9759 5.69116 22.9534L3.13366 21.6409C2.98591 21.5659 2.89591 21.3949 2.98591 21.2561C3.17116 20.9711 3.54091 20.8901 3.77941 20.8901Z" fill="url(#paint21_linear_2194_832)"/>
</g>
<path d="M3.77941 20.8901L5.62441 20.9426L6.41041 21.9859L5.94241 22.8739C5.9194 22.9175 5.88013 22.9503 5.8331 22.9652C5.78607 22.9801 5.73507 22.9759 5.69116 22.9534L3.13366 21.6409C2.98591 21.5659 2.89591 21.3949 2.98591 21.2561C3.17116 20.9711 3.54091 20.8901 3.77941 20.8901Z" fill="url(#paint22_radial_2194_832)"/>
<g filter="url(#filter2_i_2194_832)">
<path d="M13.4529 17.5623L12.9639 16.6038L14.9236 15.3416L15.1816 16.1028L19.5586 15.5876L19.0899 16.9173C18.0234 17.2518 15.7411 17.9733 14.9619 18.1773C14.1564 18.3881 13.5759 17.8518 13.4529 17.5623Z" fill="#FFC439"/>
<path d="M13.4529 17.5623L12.9639 16.6038L14.9236 15.3416L15.1816 16.1028L19.5586 15.5876L19.0899 16.9173C18.0234 17.2518 15.7411 17.9733 14.9619 18.1773C14.1564 18.3881 13.5759 17.8518 13.4529 17.5623Z" fill="url(#paint23_linear_2194_832)"/>
<path d="M13.4529 17.5623L12.9639 16.6038L14.9236 15.3416L15.1816 16.1028L19.5586 15.5876L19.0899 16.9173C18.0234 17.2518 15.7411 17.9733 14.9619 18.1773C14.1564 18.3881 13.5759 17.8518 13.4529 17.5623Z" fill="url(#paint24_radial_2194_832)"/>
</g>
<g filter="url(#filter3_f_2194_832)">
<path d="M14.4729 15.7046L14.7669 16.5596C14.7896 16.6256 14.8346 16.6816 14.8941 16.7181C14.9537 16.7545 15.0241 16.769 15.0932 16.7591L18.5154 16.2671" stroke="url(#paint25_linear_2194_832)" stroke-width="0.3"/>
</g>
<path d="M20.0528 15.2779L19.1273 15.6326L19.0073 16.9444C19.2361 17.1806 19.8008 17.7244 20.2936 18.1691C20.6146 18.4594 20.9266 18.5194 21.1531 18.4939C21.3256 18.4744 21.3871 18.2869 21.3256 18.1249L20.2951 15.3874C20.2864 15.3642 20.2733 15.343 20.2564 15.325C20.2395 15.307 20.2192 15.2924 20.1967 15.2823C20.1742 15.2721 20.1499 15.2665 20.1252 15.2657C20.1005 15.265 20.0759 15.2691 20.0528 15.2779Z" fill="#473F82"/>
<path d="M20.0528 15.2779L19.1273 15.6326L19.0073 16.9444C19.2361 17.1806 19.8008 17.7244 20.2936 18.1691C20.6146 18.4594 20.9266 18.5194 21.1531 18.4939C21.3256 18.4744 21.3871 18.2869 21.3256 18.1249L20.2951 15.3874C20.2864 15.3642 20.2733 15.343 20.2564 15.325C20.2395 15.307 20.2192 15.2924 20.1967 15.2823C20.1742 15.2721 20.1499 15.2665 20.1252 15.2657C20.1005 15.265 20.0759 15.2691 20.0528 15.2779Z" fill="url(#paint26_linear_2194_832)"/>
<path d="M20.0528 15.2779L19.1273 15.6326L19.0073 16.9444C19.2361 17.1806 19.8008 17.7244 20.2936 18.1691C20.6146 18.4594 20.9266 18.5194 21.1531 18.4939C21.3256 18.4744 21.3871 18.2869 21.3256 18.1249L20.2951 15.3874C20.2864 15.3642 20.2733 15.343 20.2564 15.325C20.2395 15.307 20.2192 15.2924 20.1967 15.2823C20.1742 15.2721 20.1499 15.2665 20.1252 15.2657C20.1005 15.265 20.0759 15.2691 20.0528 15.2779Z" fill="url(#paint27_linear_2194_832)"/>
<path d="M20.0528 15.2779L19.1273 15.6326L19.0073 16.9444C19.2361 17.1806 19.8008 17.7244 20.2936 18.1691C20.6146 18.4594 20.9266 18.5194 21.1531 18.4939C21.3256 18.4744 21.3871 18.2869 21.3256 18.1249L20.2951 15.3874C20.2864 15.3642 20.2733 15.343 20.2564 15.325C20.2395 15.307 20.2192 15.2924 20.1967 15.2823C20.1742 15.2721 20.1499 15.2665 20.1252 15.2657C20.1005 15.265 20.0759 15.2691 20.0528 15.2779Z" fill="url(#paint28_linear_2194_832)"/>
<g filter="url(#filter4_i_2194_832)">
<path d="M12.9196 16.765L12.2341 15.154L13.5789 12.271C14.5224 13.5865 14.8824 14.269 15.0639 14.5622C15.2656 14.8862 15.2874 15.2537 15.0174 15.523C14.5396 15.9497 13.4199 16.5287 12.9196 16.765Z" fill="#97919E"/>
<path d="M12.9196 16.765L12.2341 15.154L13.5789 12.271C14.5224 13.5865 14.8824 14.269 15.0639 14.5622C15.2656 14.8862 15.2874 15.2537 15.0174 15.523C14.5396 15.9497 13.4199 16.5287 12.9196 16.765Z" fill="url(#paint29_radial_2194_832)"/>
</g>
<path d="M13.0133 11.269C13.0133 11.269 9.91959 13.5423 8.49609 14.7963C9.05269 15.5768 9.69244 16.2945 10.4041 16.9368C10.532 17.0493 10.6969 17.1106 10.8672 17.1088C11.0375 17.107 11.2011 17.0422 11.3266 16.927C12.0166 16.3195 12.6616 15.727 13.2886 15.013C14.3198 13.8415 14.0738 13.0158 13.8631 12.529C13.6801 12.1068 13.2203 11.5135 13.0133 11.269Z" fill="#918996"/>
<path d="M13.0133 11.269C13.0133 11.269 9.91959 13.5423 8.49609 14.7963C9.05269 15.5768 9.69244 16.2945 10.4041 16.9368C10.532 17.0493 10.6969 17.1106 10.8672 17.1088C11.0375 17.107 11.2011 17.0422 11.3266 16.927C12.0166 16.3195 12.6616 15.727 13.2886 15.013C14.3198 13.8415 14.0738 13.0158 13.8631 12.529C13.6801 12.1068 13.2203 11.5135 13.0133 11.269Z" fill="url(#paint30_radial_2194_832)"/>
<path d="M13.0133 11.269C13.0133 11.269 9.91959 13.5423 8.49609 14.7963C9.05269 15.5768 9.69244 16.2945 10.4041 16.9368C10.532 17.0493 10.6969 17.1106 10.8672 17.1088C11.0375 17.107 11.2011 17.0422 11.3266 16.927C12.0166 16.3195 12.6616 15.727 13.2886 15.013C14.3198 13.8415 14.0738 13.0158 13.8631 12.529C13.6801 12.1068 13.2203 11.5135 13.0133 11.269Z" fill="url(#paint31_radial_2194_832)"/>
<path d="M13.0133 11.269C13.0133 11.269 9.91959 13.5423 8.49609 14.7963C9.05269 15.5768 9.69244 16.2945 10.4041 16.9368C10.532 17.0493 10.6969 17.1106 10.8672 17.1088C11.0375 17.107 11.2011 17.0422 11.3266 16.927C12.0166 16.3195 12.6616 15.727 13.2886 15.013C14.3198 13.8415 14.0738 13.0158 13.8631 12.529C13.6801 12.1068 13.2203 11.5135 13.0133 11.269Z" fill="url(#paint32_radial_2194_832)"/>
<path d="M13.0133 11.269C13.0133 11.269 9.91959 13.5423 8.49609 14.7963C9.05269 15.5768 9.69244 16.2945 10.4041 16.9368C10.532 17.0493 10.6969 17.1106 10.8672 17.1088C11.0375 17.107 11.2011 17.0422 11.3266 16.927C12.0166 16.3195 12.6616 15.727 13.2886 15.013C14.3198 13.8415 14.0738 13.0158 13.8631 12.529C13.6801 12.1068 13.2203 11.5135 13.0133 11.269Z" fill="url(#paint33_linear_2194_832)"/>
<path d="M13.0133 11.269C13.0133 11.269 9.91959 13.5423 8.49609 14.7963C9.05269 15.5768 9.69244 16.2945 10.4041 16.9368C10.532 17.0493 10.6969 17.1106 10.8672 17.1088C11.0375 17.107 11.2011 17.0422 11.3266 16.927C12.0166 16.3195 12.6616 15.727 13.2886 15.013C14.3198 13.8415 14.0738 13.0158 13.8631 12.529C13.6801 12.1068 13.2203 11.5135 13.0133 11.269Z" fill="url(#paint34_radial_2194_832)"/>
<path d="M7.47386 5.02C7.56773 4.92501 7.63453 4.80669 7.66736 4.67725H7.80236V5.521C7.64111 5.62375 7.41086 5.608 7.34261 5.4535C7.28336 5.32225 7.32761 5.158 7.47386 5.02Z" fill="url(#paint35_radial_2194_832)"/>
<g filter="url(#filter5_i_2194_832)">
<path d="M7.64263 4.29775C7.67113 3.69625 7.86538 3.40675 7.95763 3.32275H10.7566L10.8031 5.695C10.1536 7.2865 8.16988 7.35475 7.87363 6.77875C7.57738 6.2035 7.60963 4.99375 7.64263 4.29775Z" fill="url(#paint36_linear_2194_832)"/>
<path d="M7.64263 4.29775C7.67113 3.69625 7.86538 3.40675 7.95763 3.32275H10.7566L10.8031 5.695C10.1536 7.2865 8.16988 7.35475 7.87363 6.77875C7.57738 6.2035 7.60963 4.99375 7.64263 4.29775Z" fill="url(#paint37_radial_2194_832)"/>
</g>
<g filter="url(#filter6_ii_2194_832)">
<path d="M8.12109 3.73308C7.62909 3.73308 7.39509 3.45408 7.37109 3.10608C7.37109 2.61333 7.74759 2.50908 7.89309 2.49333C8.05659 2.47608 8.12109 2.45808 8.35059 2.29758C8.44749 2.22563 8.56185 2.18088 8.68184 2.16796C8.80183 2.15503 8.9231 2.17441 9.03309 2.22408C9.14409 2.27658 9.39009 2.30283 9.56559 2.25033C9.85809 2.16258 10.0876 2.16558 10.3126 2.33808C10.4701 2.45808 10.5848 2.45808 10.7731 2.45808C11.0303 2.45808 11.2493 2.57358 11.4143 2.69808C11.9071 3.07158 11.8508 4.35408 11.6078 5.07483C11.3753 5.76408 11.0251 5.84508 10.7318 5.81883C10.3793 5.78733 10.2893 5.51958 10.2368 5.29758C10.1726 5.03701 10.1061 4.777 10.0373 4.51758C9.93985 4.46569 9.85415 4.39419 9.78562 4.30759C9.71708 4.22098 9.6672 4.12114 9.63909 4.01433C9.56409 3.72333 9.26934 3.69033 9.07059 3.70908C8.94909 3.72108 8.61309 3.73308 8.12109 3.73308Z" fill="url(#paint38_radial_2194_832)"/>
</g>
<path d="M8.12109 3.73308C7.62909 3.73308 7.39509 3.45408 7.37109 3.10608C7.37109 2.61333 7.74759 2.50908 7.89309 2.49333C8.05659 2.47608 8.12109 2.45808 8.35059 2.29758C8.44749 2.22563 8.56185 2.18088 8.68184 2.16796C8.80183 2.15503 8.9231 2.17441 9.03309 2.22408C9.14409 2.27658 9.39009 2.30283 9.56559 2.25033C9.85809 2.16258 10.0876 2.16558 10.3126 2.33808C10.4701 2.45808 10.5848 2.45808 10.7731 2.45808C11.0303 2.45808 11.2493 2.57358 11.4143 2.69808C11.9071 3.07158 11.8508 4.35408 11.6078 5.07483C11.3753 5.76408 11.0251 5.84508 10.7318 5.81883C10.3793 5.78733 10.2893 5.51958 10.2368 5.29758C10.1726 5.03701 10.1061 4.777 10.0373 4.51758C9.93985 4.46569 9.85415 4.39419 9.78562 4.30759C9.71708 4.22098 9.6672 4.12114 9.63909 4.01433C9.56409 3.72333 9.26934 3.69033 9.07059 3.70908C8.94909 3.72108 8.61309 3.73308 8.12109 3.73308Z" fill="url(#paint39_radial_2194_832)"/>
<path d="M9.72021 5.38835L9.87021 4.30835C10.0117 4.33025 10.1388 4.4069 10.2243 4.52174C10.3097 4.63658 10.3465 4.78041 10.3268 4.92219C10.3072 5.06396 10.2325 5.1923 10.119 5.27952C10.0055 5.36673 9.86228 5.40582 9.72021 5.38835Z" fill="url(#paint40_radial_2194_832)"/>
<path fill-rule="evenodd" clip-rule="evenodd" d="M8.58093 5.72887C8.59824 5.74653 8.60787 5.77031 8.60773 5.79503C8.60759 5.81975 8.59769 5.84341 8.58018 5.86087C8.40093 6.03562 8.14293 6.08062 8.06118 6.08887C8.03749 6.08965 8.01439 6.08143 7.99652 6.06586C7.97865 6.05028 7.96734 6.02852 7.96487 6.00495C7.9624 5.98137 7.96895 5.95774 7.9832 5.9388C7.99745 5.91986 8.01835 5.90702 8.04168 5.90287C8.11218 5.89537 8.31693 5.85637 8.44893 5.72662C8.46669 5.70942 8.49052 5.69992 8.51524 5.7002C8.53997 5.70048 8.56358 5.71127 8.58093 5.72887Z" fill="#87014D"/>
<path d="M8.02222 4.89259H8.76322C8.76322 4.59934 8.59747 4.36084 8.39272 4.36084C8.18797 4.36084 8.02222 4.59859 8.02222 4.89259Z" fill="white"/>
<path d="M8.47586 4.89257V4.89032C8.47586 4.65032 8.37311 4.45532 8.24636 4.45532C8.11886 4.45532 8.01611 4.65032 8.01611 4.89032V4.89257H8.47586Z" fill="url(#paint41_radial_2194_832)"/>
<path d="M8.3296 4.89267C8.33164 4.87474 8.33264 4.85671 8.3326 4.83867C8.3326 4.69992 8.27335 4.58667 8.2006 4.58667C8.12785 4.58667 8.0686 4.69917 8.0686 4.83867C8.06879 4.85671 8.06979 4.87472 8.0716 4.89267H8.3296Z" fill="url(#paint42_radial_2194_832)"/>
<path d="M8.12514 4.68931C8.14925 4.70035 8.18109 4.68244 8.19627 4.6493C8.21145 4.61616 8.20422 4.58035 8.18011 4.56931C8.15601 4.55827 8.12417 4.57618 8.10899 4.60932C8.09381 4.64246 8.10104 4.67828 8.12514 4.68931Z" fill="url(#paint43_linear_2194_832)"/>
<g filter="url(#filter7_i_2194_832)">
<path d="M8.22388 4.0166C8.32063 4.0166 8.53138 4.0166 8.68663 4.12835" stroke="#BC5F4E" stroke-width="0.3" stroke-linecap="round"/>
</g>
<defs>
<filter id="filter0_i_2194_832" x="10.7085" y="5.86406" width="7.58765" height="4.33027" filterUnits="userSpaceOnUse" color-interpolation-filters="sRGB">
<feFlood flood-opacity="0" result="BackgroundImageFix"/>
<feBlend mode="normal" in="SourceGraphic" in2="BackgroundImageFix" result="shape"/>
<feColorMatrix in="SourceAlpha" type="matrix" values="0 0 0 0 0 0 0 0 0 0 0 0 0 0 0 0 0 0 127 0" result="hardAlpha"/>
<feOffset dy="-0.3"/>
<feGaussianBlur stdDeviation="0.375"/>
<feComposite in2="hardAlpha" operator="arithmetic" k2="-1" k3="1"/>
<feColorMatrix type="matrix" values="0 0 0 0 0.929412 0 0 0 0 0.552941 0 0 0 0 0.294118 0 0 0 1 0"/>
<feBlend mode="normal" in2="shape" result="effect1_innerShadow_2194_832"/>
</filter>
<filter id="filter1_i_2194_832" x="2.94995" y="20.8901" width="3.61045" height="2.38374" filterUnits="userSpaceOnUse" color-interpolation-filters="sRGB">
<feFlood flood-opacity="0" result="BackgroundImageFix"/>
<feBlend mode="normal" in="SourceGraphic" in2="BackgroundImageFix" result="shape"/>
<feColorMatrix in="SourceAlpha" type="matrix" values="0 0 0 0 0 0 0 0 0 0 0 0 0 0 0 0 0 0 127 0" result="hardAlpha"/>
<feOffset dx="0.15" dy="0.3"/>
<feGaussianBlur stdDeviation="0.15"/>
<feComposite in2="hardAlpha" operator="arithmetic" k2="-1" k3="1"/>
<feColorMatrix type="matrix" values="0 0 0 0 0.298039 0 0 0 0 0.286275 0 0 0 0 0.454902 0 0 0 1 0"/>
<feBlend mode="normal" in2="shape" result="effect1_innerShadow_2194_832"/>
</filter>
<filter id="filter2_i_2194_832" x="12.8514" y="15.1541" width="6.70723" height="3.07104" filterUnits="userSpaceOnUse" color-interpolation-filters="sRGB">
<feFlood flood-opacity="0" result="BackgroundImageFix"/>
<feBlend mode="normal" in="SourceGraphic" in2="BackgroundImageFix" result="shape"/>
<feColorMatrix in="SourceAlpha" type="matrix" values="0 0 0 0 0 0 0 0 0 0 0 0 0 0 0 0 0 0 127 0" result="hardAlpha"/>
<feOffset dx="-0.1125" dy="-0.1875"/>
<feGaussianBlur stdDeviation="0.28125"/>
<feComposite in2="hardAlpha" operator="arithmetic" k2="-1" k3="1"/>
<feColorMatrix type="matrix" values="0 0 0 0 0.960784 0 0 0 0 0.513726 0 0 0 0 0.431373 0 0 0 1 0"/>
<feBlend mode="normal" in2="shape" result="effect1_innerShadow_2194_832"/>
</filter>
<filter id="filter3_f_2194_832" x="14.0311" y="15.3558" width="4.80581" height="1.85635" filterUnits="userSpaceOnUse" color-interpolation-filters="sRGB">
<feFlood flood-opacity="0" result="BackgroundImageFix"/>
<feBlend mode="normal" in="SourceGraphic" in2="BackgroundImageFix" result="shape"/>
<feGaussianBlur stdDeviation="0.15" result="effect1_foregroundBlur_2194_832"/>
</filter>
<filter id="filter4_i_2194_832" x="12.2341" y="12.196" width="2.98364" height="4.5689" filterUnits="userSpaceOnUse" color-interpolation-filters="sRGB">
<feFlood flood-opacity="0" result="BackgroundImageFix"/>
<feBlend mode="normal" in="SourceGraphic" in2="BackgroundImageFix" result="shape"/>
<feColorMatrix in="SourceAlpha" type="matrix" values="0 0 0 0 0 0 0 0 0 0 0 0 0 0 0 0 0 0 127 0" result="hardAlpha"/>
<feOffset dy="-0.075"/>
<feGaussianBlur stdDeviation="0.1875"/>
<feComposite in2="hardAlpha" operator="arithmetic" k2="-1" k3="1"/>
<feColorMatrix type="matrix" values="0 0 0 0 0.513726 0 0 0 0 0.458824 0 0 0 0 0.482353 0 0 0 1 0"/>
<feBlend mode="normal" in2="shape" result="effect1_innerShadow_2194_832"/>
</filter>
<filter id="filter5_i_2194_832" x="7.47183" y="3.17275" width="3.3314" height="3.93662" filterUnits="userSpaceOnUse" color-interpolation-filters="sRGB">
<feFlood flood-opacity="0" result="BackgroundImageFix"/>
<feBlend mode="normal" in="SourceGraphic" in2="BackgroundImageFix" result="shape"/>
<feColorMatrix in="SourceAlpha" type="matrix" values="0 0 0 0 0 0 0 0 0 0 0 0 0 0 0 0 0 0 127 0" result="hardAlpha"/>
<feOffset dx="-0.15" dy="-0.15"/>
<feGaussianBlur stdDeviation="0.375"/>
<feComposite in2="hardAlpha" operator="arithmetic" k2="-1" k3="1"/>
<feColorMatrix type="matrix" values="0 0 0 0 0.780392 0 0 0 0 0.576471 0 0 0 0 0.2 0 0 0 1 0"/>
<feBlend mode="normal" in2="shape" result="effect1_innerShadow_2194_832"/>
</filter>
<filter id="filter6_ii_2194_832" x="7.14609" y="1.93906" width="4.79346" height="4.10894" filterUnits="userSpaceOnUse" color-interpolation-filters="sRGB">
<feFlood flood-opacity="0" result="BackgroundImageFix"/>
<feBlend mode="normal" in="SourceGraphic" in2="BackgroundImageFix" result="shape"/>
<feColorMatrix in="SourceAlpha" type="matrix" values="0 0 0 0 0 0 0 0 0 0 0 0 0 0 0 0 0 0 127 0" result="hardAlpha"/>
<feOffset dx="-0.225" dy="0.225"/>
<feGaussianBlur stdDeviation="0.225"/>
<feComposite in2="hardAlpha" operator="arithmetic" k2="-1" k3="1"/>
<feColorMatrix type="matrix" values="0 0 0 0 1 0 0 0 0 0.835294 0 0 0 0 0.211765 0 0 0 1 0"/>
<feBlend mode="normal" in2="shape" result="effect1_innerShadow_2194_832"/>
<feColorMatrix in="SourceAlpha" type="matrix" values="0 0 0 0 0 0 0 0 0 0 0 0 0 0 0 0 0 0 127 0" result="hardAlpha"/>
<feOffset dx="0.15" dy="-0.225"/>
<feGaussianBlur stdDeviation="0.28125"/>
<feComposite in2="hardAlpha" operator="arithmetic" k2="-1" k3="1"/>
<feColorMatrix type="matrix" values="0 0 0 0 0.976471 0 0 0 0 0.592157 0 0 0 0 0.109804 0 0 0 1 0"/>
<feBlend mode="normal" in2="effect1_innerShadow_2194_832" result="effect2_innerShadow_2194_832"/>
</filter>
<filter id="filter7_i_2194_832" x="8.07397" y="3.8667" width="0.837695" height="0.486621" filterUnits="userSpaceOnUse" color-interpolation-filters="sRGB">
<feFlood flood-opacity="0" result="BackgroundImageFix"/>
<feBlend mode="normal" in="SourceGraphic" in2="BackgroundImageFix" result="shape"/>
<feColorMatrix in="SourceAlpha" type="matrix" values="0 0 0 0 0 0 0 0 0 0 0 0 0 0 0 0 0 0 127 0" result="hardAlpha"/>
<feOffset dx="0.075" dy="0.075"/>
<feGaussianBlur stdDeviation="0.15"/>
<feComposite in2="hardAlpha" operator="arithmetic" k2="-1" k3="1"/>
<feColorMatrix type="matrix" values="0 0 0 0 0.619608 0 0 0 0 0.2 0 0 0 0 0.0862745 0 0 0 1 0"/>
<feBlend mode="normal" in2="shape" result="effect1_innerShadow_2194_832"/>
</filter>
<linearGradient id="paint0_linear_2194_832" x1="9.33189" y1="7.27925" x2="10.7773" y2="6.8101" gradientUnits="userSpaceOnUse">
<stop stop-color="#DFA741"/>
<stop offset="1" stop-color="#EFC441"/>
</linearGradient>
<radialGradient id="paint1_radial_2194_832" cx="0" cy="0" r="1" gradientUnits="userSpaceOnUse" gradientTransform="translate(3.22247 8.00547) rotate(27.371) scale(5.9646 2.16932)">
<stop offset="0.655" stop-color="#D38D2E" stop-opacity="0"/>
<stop offset="1" stop-color="#D38D2E"/>
</radialGradient>
<radialGradient id="paint2_radial_2194_832" cx="0" cy="0" r="1" gradientUnits="userSpaceOnUse" gradientTransform="translate(3.7381 7.34871) rotate(36.0426) scale(6.49286 7.26445)">
<stop offset="0.757" stop-color="#B7733E" stop-opacity="0"/>
<stop offset="0.956" stop-color="#B7733E"/>
</radialGradient>
<radialGradient id="paint3_radial_2194_832" cx="0" cy="0" r="1" gradientUnits="userSpaceOnUse" gradientTransform="translate(3.8086 8.76621) rotate(124.509) scale(1.13768 0.447156)">
<stop offset="0.418" stop-color="#FEA724"/>
<stop offset="1" stop-color="#FEA724" stop-opacity="0"/>
</radialGradient>
<radialGradient id="paint4_radial_2194_832" cx="0" cy="0" r="1" gradientUnits="userSpaceOnUse" gradientTransform="translate(2.65135 8.88396) rotate(18.9971) scale(0.468013 2.20449)">
<stop stop-color="#FFD05B"/>
<stop offset="1" stop-color="#FFD05B" stop-opacity="0"/>
</radialGradient>
<radialGradient id="paint5_radial_2194_832" cx="0" cy="0" r="1" gradientUnits="userSpaceOnUse" gradientTransform="translate(3.96034 7.97028) rotate(143.499) scale(0.728917 0.87042)">
<stop stop-color="#E9B636"/>
<stop offset="1" stop-color="#E9B636" stop-opacity="0"/>
</radialGradient>
<linearGradient id="paint6_linear_2194_832" x1="10.7956" y1="6.85683" x2="10.7956" y2="13.6968" gradientUnits="userSpaceOnUse">
<stop stop-color="#4091EC"/>
<stop offset="1" stop-color="#337FE1"/>
</linearGradient>
<radialGradient id="paint7_radial_2194_832" cx="0" cy="0" r="1" gradientUnits="userSpaceOnUse" gradientTransform="translate(10.7962 13.2789) rotate(-103.261) scale(3.99721 2.28812)">
<stop offset="0.175" stop-color="#346ECE"/>
<stop offset="1" stop-color="#346ECE" stop-opacity="0"/>
</radialGradient>
<radialGradient id="paint8_radial_2194_832" cx="0" cy="0" r="1" gradientUnits="userSpaceOnUse" gradientTransform="translate(8.56834 9.97418) rotate(84.038) scale(4.26526 1.62034)">
<stop stop-color="#63A0DB"/>
<stop offset="1" stop-color="#347CDB" stop-opacity="0"/>
</radialGradient>
<radialGradient id="paint9_radial_2194_832" cx="0" cy="0" r="1" gradientUnits="userSpaceOnUse" gradientTransform="translate(12.8318 10.5836) rotate(163.369) scale(1.88348 3.80739)">
<stop stop-color="#598FC9"/>
<stop offset="1" stop-color="#598FC9" stop-opacity="0"/>
</radialGradient>
<radialGradient id="paint10_radial_2194_832" cx="0" cy="0" r="1" gradientUnits="userSpaceOnUse" gradientTransform="translate(10.7956 8.77383) rotate(-24.2941) scale(1.32181 1.60782)">
<stop offset="0.238" stop-color="#2B71E5"/>
<stop offset="1" stop-color="#2B71E5" stop-opacity="0"/>
</radialGradient>
<radialGradient id="paint11_radial_2194_832" cx="0" cy="0" r="1" gradientUnits="userSpaceOnUse" gradientTransform="translate(10.2578 8.54433) rotate(149.421) scale(0.898376 0.946313)">
<stop stop-color="#529CEA"/>
<stop offset="1" stop-color="#529CEA" stop-opacity="0"/>
</radialGradient>
<radialGradient id="paint12_radial_2194_832" cx="0" cy="0" r="1" gradientUnits="userSpaceOnUse" gradientTransform="translate(16.1807 9.66967) rotate(24.692) scale(0.841598 0.883725)">
<stop stop-color="#FC9D34"/>
<stop offset="0.906" stop-color="#E17E4B"/>
</radialGradient>
<linearGradient id="paint13_linear_2194_832" x1="12.3864" y1="8.80234" x2="11.3319" y2="6.97459" gradientUnits="userSpaceOnUse">
<stop stop-color="#2C6BD5"/>
<stop offset="1" stop-color="#2F89F4" stop-opacity="0"/>
</linearGradient>
<radialGradient id="paint14_radial_2194_832" cx="0" cy="0" r="1" gradientUnits="userSpaceOnUse" gradientTransform="translate(9.50337 8.02909) rotate(8.32565) scale(0.971173 1.63995)">
<stop stop-color="#5AA7EA"/>
<stop offset="1" stop-color="#5AA7EA" stop-opacity="0"/>
</radialGradient>
<radialGradient id="paint15_radial_2194_832" cx="0" cy="0" r="1" gradientUnits="userSpaceOnUse" gradientTransform="translate(13.0194 6.89284) rotate(154.259) scale(0.728546 1.13834)">
<stop offset="0.164" stop-color="#4DB0FB"/>
<stop offset="1" stop-color="#4DB0FB" stop-opacity="0"/>
</radialGradient>
<linearGradient id="paint16_linear_2194_832" x1="9.33981" y1="15.5996" x2="6.80856" y2="21.6934" gradientUnits="userSpaceOnUse">
<stop stop-color="#FFC235"/>
<stop offset="1" stop-color="#FFC443"/>
</linearGradient>
<linearGradient id="paint17_linear_2194_832" x1="5.88381" y1="19.0976" x2="6.84006" y2="19.4599" gradientUnits="userSpaceOnUse">
<stop stop-color="#FFD558"/>
<stop offset="1" stop-color="#FFD558" stop-opacity="0"/>
</linearGradient>
<radialGradient id="paint18_radial_2194_832" cx="0" cy="0" r="1" gradientUnits="userSpaceOnUse" gradientTransform="translate(10.5631 16.4089) rotate(116.48) scale(7.82685 2.27814)">
<stop offset="0.183" stop-color="#EC8B4B"/>
<stop offset="1" stop-color="#EC8B4B" stop-opacity="0"/>
</radialGradient>
<radialGradient id="paint19_radial_2194_832" cx="0" cy="0" r="1" gradientUnits="userSpaceOnUse" gradientTransform="translate(10.4333 16.3834) rotate(110.735) scale(3.86985 1.0737)">
<stop stop-color="#D77364"/>
<stop offset="1" stop-color="#D77364" stop-opacity="0"/>
</radialGradient>
<linearGradient id="paint20_linear_2194_832" x1="4.42366" y1="22.3204" x2="4.54066" y2="22.0856" gradientUnits="userSpaceOnUse">
<stop stop-color="#443088"/>
<stop offset="1" stop-color="#534F8C" stop-opacity="0"/>
</linearGradient>
<linearGradient id="paint21_linear_2194_832" x1="6.10516" y1="22.6189" x2="5.61316" y2="22.2904" gradientUnits="userSpaceOnUse">
<stop stop-color="#4C438D"/>
<stop offset="1" stop-color="#4C438D" stop-opacity="0"/>
</linearGradient>
<radialGradient id="paint22_radial_2194_832" cx="0" cy="0" r="1" gradientUnits="userSpaceOnUse" gradientTransform="translate(2.94991 21.5284) rotate(-18.3573) scale(0.706964 1.17406)">
<stop stop-color="#64628C"/>
<stop offset="1" stop-color="#64628C" stop-opacity="0"/>
</radialGradient>
<linearGradient id="paint23_linear_2194_832" x1="13.6291" y1="17.6148" x2="14.7301" y2="17.1228" gradientUnits="userSpaceOnUse">
<stop stop-color="#FFB657"/>
<stop offset="1" stop-color="#FFB657" stop-opacity="0"/>
</linearGradient>
<radialGradient id="paint24_radial_2194_832" cx="0" cy="0" r="1" gradientUnits="userSpaceOnUse" gradientTransform="translate(13.3711 16.4898) rotate(60.9454) scale(1.68913 0.770181)">
<stop stop-color="#F3953D"/>
<stop offset="1" stop-color="#F3953D" stop-opacity="0"/>
</radialGradient>
<linearGradient id="paint25_linear_2194_832" x1="14.5779" y1="16.5131" x2="18.2814" y2="16.3728" gradientUnits="userSpaceOnUse">
<stop stop-color="#FFCC43"/>
<stop offset="1" stop-color="#FFCC43" stop-opacity="0"/>
</linearGradient>
<linearGradient id="paint26_linear_2194_832" x1="19.6051" y1="15.2651" x2="19.9801" y2="16.1381" gradientUnits="userSpaceOnUse">
<stop offset="0.024" stop-color="#444367"/>
<stop offset="1" stop-color="#444367" stop-opacity="0"/>
</linearGradient>
<linearGradient id="paint27_linear_2194_832" x1="19.6051" y1="17.4859" x2="20.1781" y2="16.8821" gradientUnits="userSpaceOnUse">
<stop stop-color="#5A418F"/>
<stop offset="1" stop-color="#5A418F" stop-opacity="0"/>
</linearGradient>
<linearGradient id="paint28_linear_2194_832" x1="20.9416" y1="16.9466" x2="20.6363" y2="17.0524" gradientUnits="userSpaceOnUse">
<stop offset="0.213" stop-color="#5E5D8F"/>
<stop offset="1" stop-color="#484083" stop-opacity="0"/>
</linearGradient>
<radialGradient id="paint29_radial_2194_832" cx="0" cy="0" r="1" gradientUnits="userSpaceOnUse" gradientTransform="translate(12.7614 14.6387) rotate(62.835) scale(4.00418 1.434)">
<stop offset="0.329" stop-color="#746484"/>
<stop offset="1" stop-color="#827483" stop-opacity="0"/>
</radialGradient>
<radialGradient id="paint30_radial_2194_832" cx="0" cy="0" r="1" gradientUnits="userSpaceOnUse" gradientTransform="translate(10.4416 13.3023) rotate(51.34) scale(3.45168 13.1365)">
<stop offset="0.554" stop-color="#917EA3" stop-opacity="0"/>
<stop offset="1" stop-color="#917EA3"/>
</radialGradient>
<radialGradient id="paint31_radial_2194_832" cx="0" cy="0" r="1" gradientUnits="userSpaceOnUse" gradientTransform="translate(10.9021 17.4123) rotate(-65.1196) scale(1.80292 5.99758)">
<stop stop-color="#885FA7"/>
<stop offset="1" stop-color="#9583A6" stop-opacity="0"/>
</radialGradient>
<radialGradient id="paint32_radial_2194_832" cx="0" cy="0" r="1" gradientUnits="userSpaceOnUse" gradientTransform="translate(13.5331 13.1688) rotate(146.503) scale(1.84764 1.75748)">
<stop stop-color="#AFA8B2"/>
<stop offset="1" stop-color="#9B92A1" stop-opacity="0"/>
</radialGradient>
<linearGradient id="paint33_linear_2194_832" x1="9.87834" y1="13.4898" x2="10.3943" y2="14.1888" gradientUnits="userSpaceOnUse">
<stop stop-color="#908582"/>
<stop offset="1" stop-color="#908582" stop-opacity="0"/>
</linearGradient>
<radialGradient id="paint34_radial_2194_832" cx="0" cy="0" r="1" gradientUnits="userSpaceOnUse" gradientTransform="translate(10.1363 13.384) rotate(-25.4269) scale(1.58303 0.19884)">
<stop offset="0.207" stop-color="#9C959A"/>
<stop offset="1" stop-color="#9C959A" stop-opacity="0"/>
</radialGradient>
<radialGradient id="paint35_radial_2194_832" cx="0" cy="0" r="1" gradientUnits="userSpaceOnUse" gradientTransform="translate(7.34786 5.131) rotate(62.7144) scale(0.511259 0.651113)">
<stop offset="0.332" stop-color="#FFBF42"/>
<stop offset="1" stop-color="#EBA544"/>
</radialGradient>
<linearGradient id="paint36_linear_2194_832" x1="9.76813" y1="5.37775" x2="7.62163" y2="5.50675" gradientUnits="userSpaceOnUse">
<stop stop-color="#FFC33E"/>
<stop offset="1" stop-color="#FFC247"/>
</linearGradient>
<radialGradient id="paint37_radial_2194_832" cx="0" cy="0" r="1" gradientUnits="userSpaceOnUse" gradientTransform="translate(10.0021 4.82125) rotate(-176.82) scale(0.633789 0.772715)">
<stop offset="0.156" stop-color="#FFAB1D"/>
<stop offset="1" stop-color="#FFAB1D" stop-opacity="0"/>
</radialGradient>
<radialGradient id="paint38_radial_2194_832" cx="0" cy="0" r="1" gradientUnits="userSpaceOnUse" gradientTransform="translate(11.4083 2.82483) rotate(137.726) scale(3.48424 3.9509)">
<stop offset="0.363" stop-color="#FFBC2B"/>
<stop offset="1" stop-color="#FFA629"/>
</radialGradient>
<radialGradient id="paint39_radial_2194_832" cx="0" cy="0" r="1" gradientUnits="userSpaceOnUse" gradientTransform="translate(10.9338 5.97159) rotate(-95.132) scale(0.982455 2.0832)">
<stop offset="0.064" stop-color="#B28146"/>
<stop offset="1" stop-color="#EF9926" stop-opacity="0"/>
</radialGradient>
<radialGradient id="paint40_radial_2194_832" cx="0" cy="0" r="1" gradientUnits="userSpaceOnUse" gradientTransform="translate(10.2309 4.68706) rotate(115.703) scale(0.783585 1.27329)">
<stop offset="0.04" stop-color="#FFD040"/>
<stop offset="1" stop-color="#FEAD30"/>
</radialGradient>
<radialGradient id="paint41_radial_2194_832" cx="0" cy="0" r="1" gradientUnits="userSpaceOnUse" gradientTransform="translate(8.22986 4.87682) scale(0.20508 0.398437)">
<stop offset="0.895" stop-color="#916A62"/>
<stop offset="1" stop-color="#824D44"/>
</radialGradient>
<radialGradient id="paint42_radial_2194_832" cx="0" cy="0" r="1" gradientUnits="userSpaceOnUse" gradientTransform="translate(8.10385 4.89267) scale(0.1875 0.405765)">
<stop stop-color="#666361"/>
<stop offset="0.813" stop-color="#565352"/>
</radialGradient>
<linearGradient id="paint43_linear_2194_832" x1="8.1154" y1="4.58091" x2="8.22417" y2="4.68023" gradientUnits="userSpaceOnUse">
<stop stop-color="white"/>
<stop offset="1" stop-color="white" stop-opacity="0"/>
</linearGradient>
</defs>
</svg>
