<svg width="41" height="41" viewBox="0 0 41 41" fill="none" xmlns="http://www.w3.org/2000/svg">
<path d="M7.09118 35.7694C6.50784 35.9083 6.0009 35.7624 5.57034 35.3319C5.13979 34.9013 4.99396 34.3944 5.13284 33.811L6.79951 25.8527L15.0495 34.1027L7.09118 35.7694ZM15.0495 34.1027L6.79951 25.8527L25.8828 6.76937C26.5217 6.13048 27.3134 5.81104 28.2578 5.81104C29.2023 5.81104 29.994 6.13048 30.6328 6.76937L34.1328 10.2694C34.7717 10.9083 35.0912 11.6999 35.0912 12.6444C35.0912 13.5888 34.7717 14.3805 34.1328 15.0194L15.0495 34.1027ZM28.2578 9.1027L11.0078 26.3527L14.5495 29.8944L31.7995 12.6444L28.2578 9.1027Z" fill="#667085"/>
</svg>
